<svg width="28" height="28" viewBox="0 0 28 28" fill="none" xmlns="http://www.w3.org/2000/svg"><circle cx="14" cy="14" r="14" fill="#BDCAF1"/><path d="M19.1399 9C19.2821 8.99972 19.423 9.02688 19.5549 9.08C19.6923 9.13769 19.8165 9.22275 19.9199 9.33C20.0245 9.43084 20.1093 9.5504 20.1699 9.68249C20.2246 9.81829 20.2518 9.9636 20.2499 10.11C20.2495 10.2949 20.2209 10.4787 20.1649 10.655C20.1068 10.8331 20.0225 11.0016 19.9149 11.155C19.8033 11.3246 19.6742 11.4821 19.5299 11.625C19.3847 11.7705 19.2275 11.9034 19.0599 12.0225L17.5774 13.055L16.5099 13.8049C16.3474 13.9199 16.2074 14.0174 16.0874 14.0974L15.8025 14.2924L15.7525 14.3224L15.6925 14.3774L15.6075 14.4324C15.5692 14.4509 15.5332 14.4735 15.5 14.4999L15.285 14.6474C15.2276 14.685 15.1725 14.7259 15.12 14.7699C15.0725 14.8024 15.0175 14.8349 14.955 14.8724C14.8925 14.9099 14.8275 14.9474 14.755 14.9874C14.6825 15.0274 14.6125 15.0649 14.5475 15.0974C14.4825 15.1299 14.4175 15.1599 14.3525 15.1849L14.1675 15.2274C14.1158 15.239 14.063 15.2449 14.01 15.2449H14C13.947 15.2449 13.8942 15.239 13.8425 15.2274L13.6575 15.1849C13.5925 15.1599 13.5275 15.1299 13.4625 15.0974C13.3975 15.0649 13.33 15.0299 13.255 14.9874C13.18 14.9449 13.115 14.9099 13.055 14.8724C12.995 14.8349 12.9375 14.8024 12.89 14.7699C12.8374 14.7259 12.7823 14.685 12.725 14.6474L12.5 14.4999C12.47 14.4703 12.4374 14.4436 12.4025 14.4199L12.3175 14.3649L12.25 14.3149L12.2 14.2849L11.8775 14.0649L11.5 13.7975C11.345 13.6825 11.175 13.5625 10.9875 13.43L10.375 13.015C9.98502 12.74 9.66752 12.515 9.42752 12.3575L8.94753 12.0275C8.79994 11.9221 8.66039 11.806 8.53003 11.68C8.38524 11.5372 8.25073 11.3843 8.12754 11.2225C8.01649 11.0664 7.92261 10.8987 7.84754 10.7225C7.78634 10.5793 7.75324 10.4257 7.75004 10.27C7.74886 10.1006 7.77331 9.93205 7.82254 9.76999C7.87059 9.62196 7.94513 9.48389 8.04254 9.3625C8.13864 9.2547 8.25727 9.16935 8.39003 9.1125C8.53653 9.04094 8.697 9.00253 8.86003 9H19.1399ZM8.45753 12.7725C8.94753 13.1058 9.39336 13.4108 9.79502 13.6875L10.875 14.4374L7.75004 17.5574V12.1625C7.85504 12.2741 7.96504 12.3816 8.08004 12.485C8.19808 12.5906 8.32431 12.6867 8.45753 12.7725ZM19.1399 18.8149H8.86003C8.72721 18.8165 8.59516 18.7945 8.47003 18.7499C8.34766 18.705 8.23547 18.6362 8.14004 18.5474L11.68 14.9999L11.8025 15.0999C11.8415 15.1308 11.8824 15.1592 11.925 15.1849L12.28 15.4474C12.3727 15.5171 12.4705 15.5798 12.5725 15.6349C12.6633 15.699 12.7586 15.7567 12.8575 15.8074C12.9675 15.8649 13.0925 15.9199 13.23 15.9774C13.3559 16.0337 13.4875 16.0765 13.6225 16.1049C13.7421 16.133 13.8646 16.1473 13.9875 16.1474H14.0125C14.1354 16.1471 14.2578 16.1329 14.3775 16.1049C14.5123 16.0757 14.6438 16.033 14.77 15.9774C14.9075 15.9199 15.02 15.8649 15.14 15.8074C15.2397 15.7566 15.3357 15.699 15.4275 15.6349C15.5295 15.5798 15.6272 15.5171 15.72 15.4474L16.0749 15.1849C16.1149 15.1599 16.1549 15.1324 16.1974 15.0999C16.236 15.0677 16.277 15.0385 16.3199 15.0124L19.8599 18.5449C19.7645 18.6337 19.6523 18.7025 19.5299 18.7474C19.4049 18.7928 19.2729 18.8157 19.1399 18.8149ZM19.5549 12.7725C19.6839 12.683 19.8082 12.5871 19.9274 12.485C20.0423 12.3851 20.15 12.2773 20.2499 12.1625V17.5574L17.1249 14.4324C17.4574 14.1949 17.8274 13.9324 18.2299 13.6625C18.6324 13.3925 19.0724 13.09 19.5549 12.7725Z" fill="white"/></svg>