<svg width="602" height="124" viewBox="0 0 602 124" fill="none" xmlns="http://www.w3.org/2000/svg">
<mask id="mask0_11659:7413" style="mask-type:alpha" maskUnits="userSpaceOnUse" x="0" y="0" width="600" height="120">
<rect width="600" height="120" fill="white"/>
</mask>
<g mask="url(#mask0_11659:7413)">
<path d="M452.818 64.6804C452.818 64.6804 466.843 45.9805 503.306 57.2005C503.306 57.2005 501.904 27.7487 545.847 33.826C589.791 39.9032 585.584 66.0831 578.571 68.8885C578.571 68.8885 588.992 66.1994 599.356 67.0742C612.8 68.2096 611.597 88.2973 598.111 87.9205C560.11 86.8631 485.184 84.7814 484.138 84.7814C482.737 84.7831 419.158 86.6522 452.818 64.6804Z" fill="url(#paint0_linear_11659:7413)"/>
<path d="M333.642 51.166C335.023 51.2589 336.408 51.2971 337.792 51.2788C351.946 51.1062 436.479 50.077 437.603 50.077C438.83 50.077 510.793 42.3082 476.447 23.5004C442.102 4.69261 415.525 14.5049 415.525 14.5049C415.525 14.5049 422.886 -5.52967 396.307 -9.20989C369.729 -12.8901 370.547 1.42075 370.547 1.42075C370.547 1.42075 365.232 -9.61825 353.783 -2.25947C342.334 5.09931 351.738 10.4163 351.738 10.4163C351.738 10.4163 330.885 -3.48621 318.619 14.0965C318.619 14.0965 312.486 23.092 314.939 30.8608C314.939 30.8608 278.959 31.2692 276.095 39.448C273.554 46.7138 322.673 50.4289 333.642 51.166Z" fill="url(#paint1_linear_11659:7413)"/>
<path d="M469.674 51.8733C469.383 54.926 469.26 58.002 469.187 61.0663C469.031 67.6084 469.214 74.1886 470.06 80.6825C470.553 84.4657 471.266 88.2339 472.449 91.8659C472.68 92.5731 473.802 92.271 473.57 91.5572C471.453 85.0616 470.736 78.1477 470.439 71.3517C470.2 65.9052 470.271 60.4389 470.605 54.9974C470.668 53.9549 470.738 52.9124 470.836 51.8733C470.907 51.1296 469.743 51.1346 469.674 51.8733Z" fill="#1332A3"/>
<path d="M419.685 48.3274C417.759 56.9212 416.582 65.7873 416.091 74.5737C415.875 78.4448 415.827 82.3292 416.063 86.2003C416.107 86.944 417.269 86.949 417.225 86.2003C416.519 74.5687 418.023 62.7395 420.251 51.3337C420.427 50.4323 420.606 49.5326 420.807 48.6362C420.97 47.9091 419.849 47.597 419.685 48.3274Z" fill="#1332A3"/>
<path d="M464.643 59.0079C462.928 60.2944 462.319 58.2326 462.319 58.2326C462.319 58.2326 461.718 58.6958 461.517 59.7051C461.316 60.7127 462.088 62.5553 462.042 62.796C461.994 63.0367 461.471 62.9288 461.453 62.9205C461.434 62.9138 461.351 61.9726 461.351 61.9726C461.097 61.375 459.824 61.4198 460.118 62.6914C460.413 63.963 461.197 63.3786 461.252 63.533C461.307 63.6874 462.254 64.9108 462.382 64.9573C462.508 65.0038 462.321 65.1349 462.321 65.1349C463.337 66.5758 465.432 65.9284 465.432 65.9284C466.766 65.6927 467.304 63.9082 467.304 63.9082C468.373 60.8007 466.169 57.5952 466.169 57.5952C466.169 57.5952 466.358 57.7197 464.643 59.0079Z" fill="#925C59"/>
<path d="M491.921 80.178C491.921 80.178 493.243 81.0312 494.335 81.257C495.736 81.5458 497.932 82.5169 498.21 82.9319C498.485 83.3469 495.251 82.8107 495.032 83.1427C494.813 83.4731 495.885 84.3346 495.567 84.572C495.248 84.8094 493.201 83.6324 492.114 82.6049C491.027 81.5774 490.879 81.6736 490.879 81.6736L491.921 80.178Z" fill="#925C59"/>
<path d="M466.17 57.6417C465.73 58.5331 464.215 59.2735 464.215 59.2735C462.789 59.9674 462.316 58.2277 462.316 58.2277C461.529 59.0112 461.478 59.9889 461.478 59.9889C461.497 61.2572 462.098 62.5453 462.039 62.7927C461.977 63.04 461.501 62.9371 461.449 62.9172C461.398 62.8973 461.348 61.9693 461.348 61.9693C461.195 61.6274 460.764 61.6157 460.764 61.6157C460.764 61.6157 459.967 61.5792 460.086 62.5072C460.204 63.4268 460.754 63.5862 461.003 63.5198C461.255 63.4534 461.248 63.5297 461.248 63.5297C461.888 64.4925 462.379 64.954 462.43 65.0005C462.482 65.047 462.321 65.1333 462.321 65.1333L461.698 65.3159C461.698 65.3159 459.144 62.874 458.491 61.9494C457.839 61.0248 457.203 59.0195 457.977 57.3346C458.748 55.6497 460.548 56.0663 460.548 56.0663C460.297 54.7201 462.447 54.8662 462.447 54.8662C465.951 54.5259 467.588 55.8555 468.144 56.4515C468.699 57.0491 467.973 58.5929 467.835 58.8153C467.698 59.0378 467.804 59.2253 467.804 59.2253C468.164 60.3442 467.405 60.9932 467.405 60.9932C467.422 59.6835 466.174 57.6434 466.17 57.6417Z" fill="#181238"/>
<path d="M462.32 65.1333L461.555 68.455L465.675 68.4649L465.431 65.9268C463.945 66.0081 462.32 65.1333 462.32 65.1333Z" fill="#7F514B"/>
<path d="M479.087 74.617L469.541 68.8933C469.114 68.7074 468.663 68.5978 468.2 68.5663C467.29 68.5032 465.806 68.4136 465.68 68.465L461.561 68.46L457.584 68.3887C456.767 68.3737 455.987 68.7024 455.421 69.2917C452.884 71.9211 449.217 78.1113 449.046 80.6644C448.851 83.6042 457.094 92.2213 457.094 92.2213L461.33 89.5952L456.4 82.1916C454.548 78.7421 458.347 74.5589 458.347 74.5589L454.828 92.7757L471.968 92.7824L471.468 75.4105L474.214 76.4546C474.73 76.6588 477.321 77.7527 477.816 78.0084L491.025 82.9535L492.084 80.2693L479.087 74.617Z" fill="#FFDA68"/>
<path d="M466.246 60.7792C466.548 60.7792 466.548 60.311 466.246 60.311C465.944 60.311 465.944 60.7792 466.246 60.7792Z" fill="black" stroke="#231F20" stroke-width="0.25" stroke-miterlimit="10"/>
<path d="M463.691 61.4149C463.994 61.4149 463.992 60.9468 463.691 60.9468C463.389 60.9468 463.389 61.4149 463.691 61.4149Z" fill="black" stroke="#231F20" stroke-width="0.25" stroke-miterlimit="10"/>
<path d="M464.901 61.2871C464.833 61.1942 464.673 61.2855 464.745 61.3784C464.916 61.6158 465.087 61.8532 465.258 62.0889C465.297 62.147 465.341 62.2051 465.382 62.2632C465.402 62.2914 465.43 62.318 465.43 62.3545C465.43 62.3827 465.412 62.4193 465.4 62.4425C465.355 62.5438 465.282 62.6334 465.193 62.6981C465.095 62.7662 465.188 62.9239 465.284 62.8558C465.399 62.7745 465.493 62.6699 465.553 62.5438C465.583 62.4807 465.611 62.411 465.611 62.3396C465.609 62.2599 465.556 62.1985 465.512 62.1354C465.309 61.8549 465.105 61.571 464.901 61.2871Z" fill="black"/>
<path d="M465.11 64.2069C465.227 64.1853 465.177 64.0077 465.062 64.0293C464.707 64.099 464.324 64.0011 464.045 63.7703C464.006 63.7388 463.953 63.7322 463.914 63.7703C463.88 63.8035 463.875 63.87 463.914 63.9015C464.247 64.1771 464.687 64.2899 465.11 64.2069Z" fill="black"/>
<path d="M459.023 87.062C459.063 87.1367 459.164 87.0686 459.124 86.9939C458.967 86.6934 458.789 86.4079 458.611 86.1207C458.173 85.4119 457.722 84.7131 457.282 84.0042C457.074 83.6706 456.868 83.3336 456.671 82.99C456.525 82.7377 456.38 82.482 456.261 82.2098C456.226 82.1301 456.125 82.1998 456.16 82.2778C456.297 82.5899 456.468 82.8837 456.638 83.1742C457.059 83.8963 457.509 84.5969 457.954 85.3007C458.318 85.8784 458.699 86.4511 459.023 87.062Z" fill="black"/>
<path d="M479.499 76.6322C479.45 76.7119 479.581 76.775 479.629 76.697C479.954 76.1575 480.046 75.5017 479.893 74.8925C479.871 74.8012 479.735 74.851 479.757 74.9407C479.901 75.5117 479.805 76.1259 479.499 76.6322Z" fill="black"/>
<path d="M458.223 74.5041C458.205 74.5505 458.245 74.6053 458.288 74.6186C458.341 74.6335 458.384 74.6003 458.403 74.5539C458.532 74.2335 458.587 73.8849 458.569 73.5413C458.562 73.4234 458.378 73.4234 458.384 73.5413C458.401 73.8699 458.348 74.197 458.223 74.5041Z" fill="black"/>
<path d="M465.493 66.5194C464.439 66.4812 464.125 65.7292 464.125 65.7292C464.575 65.9965 465.435 65.9284 465.435 65.9284L465.493 66.5194Z" fill="#5B3231"/>
<path d="M471.96 92.7789H470.066L471.461 75.4087L471.96 92.7789Z" fill="#ECC559"/>
<path d="M434.154 -135.587C406.338 -127.626 391.912 -113.225 391.912 -113.225C356.611 -83.03 363.133 -32.7901 375.41 -11.8342C387.687 9.1216 418.802 34.9462 418.802 34.9462L475.74 39.1792C475.74 39.1792 510.834 10.755 524.848 -9.08197C538.646 -28.6119 548.138 -78.7771 517.428 -110.282C516.615 -111.117 515.831 -111.98 515.069 -112.862C512.433 -115.911 503.454 -124.694 481.823 -132.862C480.631 -133.311 479.378 -133.582 478.106 -133.655L437.765 -135.982C436.548 -136.05 435.326 -135.923 434.154 -135.587Z" fill="#4582F0"/>
<path d="M451.685 51.7187C449.759 60.3126 448.582 69.1786 448.091 77.965C447.875 81.8361 447.827 85.7206 448.063 89.5917C448.107 90.3354 449.269 90.3403 449.225 89.5917C448.519 77.96 450.023 66.1309 452.251 54.725C452.427 53.8236 452.606 52.9239 452.807 52.0275C452.968 51.2988 451.849 50.9883 451.685 51.7187Z" fill="#1332A3"/>
<path d="M470.968 135.806L446.376 133.588C444.706 133.437 443.475 131.962 443.626 130.292L447.069 92.1001C447.22 90.4301 448.695 89.1984 450.365 89.3494L474.957 91.5672C476.627 91.7183 477.858 93.194 477.707 94.864L474.264 133.056C474.113 134.726 472.638 135.957 470.968 135.806Z" fill="#68B5F5"/>
<path d="M448.363 133.637L410.195 130.154C408.661 130.014 407.532 128.658 407.672 127.124L411.196 88.5077C411.335 86.9739 412.692 85.8451 414.225 85.9845L452.394 89.4689C453.928 89.6083 455.056 90.9645 454.917 92.4984L451.393 131.115C451.252 132.647 449.896 133.778 448.363 133.637Z" fill="#92C9F8"/>
<path d="M449.479 78.5196L449.942 78.5379C449.942 78.5379 450.546 78.0764 450.883 77.9701C451.22 77.8622 451.628 78.0946 453.28 78.1826C454.932 78.2723 454.666 77.7394 454.523 77.5435C454.381 77.3476 452.747 77.1368 454.203 76.0877C455.659 75.0386 455.76 74.4775 455.191 74.4293C454.623 74.3812 453.013 74.9024 451.686 75.6594C450.36 76.418 449.603 76.2753 449.603 76.2753L449.479 78.5196Z" fill="#925C59"/>
<path d="M434.26 66.8083C434.781 69.8394 438.426 73.6757 438.426 73.6757C442.166 77.321 449.602 76.2802 449.602 76.2802L450.739 85.2293C444.676 86.7449 438.332 82.9086 438.332 82.9086L439.497 88.3269L425.585 87.047C425.112 88.7037 425.734 92.2361 425.734 92.2361L415.789 92.188C418.583 75.7092 429.001 64.8644 429.001 64.8644L434.26 66.8083Z" fill="#FFD3E8"/>
<path d="M449.603 76.2787L450.74 85.2278C444.963 86.9807 438.333 82.9071 438.333 82.9071L434.26 66.8051C438.048 77.9818 449.601 76.277 449.603 76.2787Z" fill="#F5B9D5"/>
<path d="M416.2 92.0154L419.04 92.1581C419.04 92.1581 418.507 93.5443 418.062 94.2016C417.618 94.859 417.868 95.7819 418.081 96.5821C418.293 97.3822 419.254 98.6438 418.134 98.1806C417.015 97.7175 417.76 96.7763 416.233 97.2029C414.706 97.6295 415.169 98.3583 413.375 98.4994C411.58 98.6405 411.474 97.9665 411.509 97.5581C411.544 97.1514 414.137 95.3387 415.006 94.6282C415.876 93.9177 416.072 92.2843 416.072 92.2843L416.2 92.0154Z" fill="#925C59"/>
<path d="M429.922 65.2031L431.183 63.1712C433.356 62.7861 433.622 61.976 433.622 61.976C433.622 61.976 432.05 60.3575 433.572 59.7085C435.05 59.0777 435.136 60.2231 435.136 60.2231C435.881 57.914 435.938 58.1697 435.938 58.1697C436.955 58.7507 438.982 58.7656 438.982 58.7656C439.48 61.2987 437.882 64.295 437.882 64.295C437.302 65.1831 436.912 66.1526 435.999 66.058C435.088 65.9633 433.501 64.1523 433.501 64.1523L433.122 66.39L429.922 65.2031Z" fill="#925C59"/>
<path d="M435.942 58.246C435.753 58.246 435.137 60.2231 435.137 60.2231C435.042 59.5723 433.977 59.2885 433.231 60.0106C432.486 60.7327 433.621 61.976 433.621 61.976C433.336 62.8641 431.183 63.1712 431.183 63.1712C428.553 61.6208 430.33 58.1281 430.33 58.1281C430.33 58.1281 430.366 57.7962 427.82 59.1939C425.273 60.5916 423.298 59.3831 423.001 57.4177C422.704 55.4522 423.866 53.6644 426.244 53.925C428.625 54.1857 430.944 56.7786 430.944 56.7786C432.614 54.0445 436.672 56.1992 436.672 56.1992C438.118 53.8304 440.651 55.17 440.532 56.8865C440.412 58.6029 438.982 58.7689 438.982 58.7689C436.475 58.7672 436.131 58.246 435.942 58.246Z" fill="#181338"/>
<path d="M437.397 61.2007C437.702 61.2007 437.702 60.726 437.397 60.726C437.092 60.726 437.092 61.2007 437.397 61.2007Z" fill="#231F20" stroke="#231F20" stroke-width="0.25" stroke-miterlimit="10"/>
<path d="M439.073 61.2007C439.378 61.2007 439.378 60.726 439.073 60.726C438.767 60.726 438.767 61.2007 439.073 61.2007Z" fill="#231F20" stroke="#231F20" stroke-width="0.25" stroke-miterlimit="10"/>
<path d="M438.527 61.7137C438.519 61.6573 438.447 61.6257 438.399 61.639C438.339 61.6556 438.318 61.7121 438.326 61.7685C438.354 61.9544 438.384 62.1403 438.414 62.3263C438.441 62.4972 438.479 62.6682 438.482 62.8408C438.484 62.9006 438.489 62.9869 438.452 63.0384C438.426 63.0749 438.379 63.0998 438.339 63.1181C438.241 63.1679 438.134 63.1961 438.026 63.2127C437.891 63.2359 437.949 63.4384 438.082 63.4169C438.217 63.3953 438.353 63.3538 438.471 63.2874C438.607 63.211 438.671 63.1098 438.686 62.9554C438.708 62.7529 438.658 62.5454 438.627 62.3462C438.593 62.1353 438.56 61.9262 438.527 61.7137Z" fill="#231F20"/>
<path d="M436.907 64.0079C436.863 63.973 436.802 63.9647 436.757 64.0079C436.721 64.0444 436.712 64.1224 436.757 64.1572C437.033 64.3764 437.365 64.5058 437.717 64.5274C437.775 64.5307 437.823 64.4759 437.823 64.4212C437.823 64.3614 437.773 64.3182 437.717 64.3149C437.424 64.2983 437.136 64.1888 436.907 64.0079Z" fill="#231F20"/>
<path d="M425.904 85.5231C425.903 85.6359 426.079 85.6359 426.079 85.5231C426.084 85.1927 426.097 84.864 426.112 84.537C426.183 82.8637 426.321 81.1921 426.538 79.5305C426.799 77.5601 427.149 75.5415 427.906 73.6939C427.948 73.5894 427.778 73.5445 427.735 73.6475C427.32 74.6601 427.041 75.7241 426.819 76.7932C426.416 78.7254 426.19 80.6958 426.045 82.6629C425.974 83.6141 425.919 84.5686 425.904 85.5231Z" fill="#181338"/>
<path opacity="0.2" d="M380.689 -31.2645C373.38 -72.313 408.935 -120.739 435.593 -135.83C435.392 -135.815 435.191 -135.81 434.991 -135.81C428.173 -134.078 388.177 -122.558 372.566 -87.2065C361.092 -61.2242 366.125 -36.4504 370.536 -22.9695C372.59 -16.6947 375.636 -10.7951 379.533 -5.46649C386.927 4.63794 406.872 26.7973 430.558 44.0795C430.557 44.0795 388.036 9.98645 380.689 -31.2645Z" fill="#2B2B2B"/>
<path d="M470.238 53.3474L421.917 50.2033C419.689 50.0589 417.999 48.1383 418.137 45.9089L418.802 34.9463L475.74 39.1793L474.542 49.5642C474.399 51.7986 472.47 53.4935 470.238 53.3474Z" fill="#3769D5"/>
<path opacity="0.2" d="M478.108 -133.653C478.108 -133.653 509.814 -23.1422 457.262 37.8861L475.743 39.1792C475.743 39.1792 550.783 -43.4141 491.732 -128.74L487.565 -130.576L481.826 -132.86C481.823 -132.86 479.67 -133.622 478.108 -133.653Z" fill="#2B2B2B"/>
<path opacity="0.2" d="M454.01 -135.003C454.01 -135.003 406.513 -30.9558 449.347 37.2453L430.882 35.7596C430.882 35.7596 368.796 -60.3179 439.944 -135.854L445.534 -135.569" fill="#2B2B2B"/>
</g>
<defs>
<linearGradient id="paint0_linear_11659:7413" x1="526.239" y1="22.1373" x2="525.975" y2="100.706" gradientUnits="userSpaceOnUse">
<stop stop-color="#B7CBF0"/>
<stop offset="0.7428" stop-color="#C1D3F3" stop-opacity="0"/>
</linearGradient>
<linearGradient id="paint1_linear_11659:7413" x1="381.259" y1="-21.8984" x2="381" y2="65.5" gradientUnits="userSpaceOnUse">
<stop stop-color="#B7CBF0"/>
<stop offset="0.7428" stop-color="#C1D3F3" stop-opacity="0"/>
</linearGradient>
</defs>
</svg>
