<svg width="100" height="100" viewBox="0 0 100 100" fill="none" xmlns="http://www.w3.org/2000/svg">
<g id="illustration-sendmail">
<g id="Group 48096064">
<path id="Vector" d="M81.2603 33.0534V67.266C81.2603 69.2104 80.4879 71.0751 79.113 72.45C77.7382 73.8249 75.8734 74.5973 73.9291 74.5973H25.0539C23.1096 74.5973 21.2448 73.8249 19.8699 72.45C18.4951 71.0751 17.7227 69.2104 17.7227 67.266V33.0534M81.2603 33.0534C81.2603 31.1091 80.4879 29.2443 79.113 27.8694C77.7382 26.4946 75.8734 25.7222 73.9291 25.7222H25.0539C23.1096 25.7222 21.2448 26.4946 19.8699 27.8694C18.4951 29.2443 17.7227 31.1091 17.7227 33.0534M81.2603 33.0534V33.8452C81.2605 35.0969 80.9401 36.3278 80.3298 37.4206C79.7196 38.5134 78.8396 39.4318 77.7739 40.0882L53.3363 55.1254C52.1803 55.8375 50.8492 56.2145 49.4915 56.2145C48.1338 56.2145 46.8027 55.8375 45.6466 55.1254L21.2091 40.0915C20.1433 39.435 19.2634 38.5167 18.6531 37.4238C18.0428 36.331 17.7225 35.1002 17.7227 33.8485V33.0534" fill="#F3F3F1"/>
<path id="Vector_2" d="M25.3221 74.0609C23.3066 74.0609 21.3737 73.2603 19.9485 71.8351C18.5233 70.4099 17.7227 68.477 17.7227 66.4615V30.9972M17.7227 30.9972C17.7227 28.9817 18.5233 27.0487 19.9485 25.6235C21.3737 24.1984 23.3066 23.3977 25.3221 23.3977M17.7227 30.9972V31.8213C17.7225 33.1188 18.0546 34.3947 18.6872 35.5275C19.3198 36.6603 20.2319 37.6122 21.3366 38.2927L46.6683 53.8767C47.8666 54.6148 49.2464 55.0057 50.6538 55.0057C52.0612 55.0057 53.4409 54.6148 54.6393 53.8767" stroke="#D5DBE1" stroke-width="3.0994" stroke-linecap="round" stroke-linejoin="round"/>
<path id="Vector_3" d="M16.1719 30.9972V66.4615C16.1719 68.477 16.9725 70.4099 18.3977 71.8351C19.8229 73.2603 21.7559 74.0609 23.7714 74.0609H74.4346C76.4501 74.0609 78.3831 73.2603 79.8083 71.8351C81.2334 70.4099 82.0341 68.477 82.0341 66.4615V51.5005M16.1719 30.9972C16.1719 28.9817 16.9725 27.0487 18.3977 25.6235C19.8229 24.1984 21.7559 23.3977 23.7714 23.3977H49.103H58M16.1719 30.9972V31.8213C16.1717 33.1188 16.5038 34.3947 17.1364 35.5275C17.769 36.6603 18.6811 37.6122 19.7859 38.2927L45.1175 53.8767C46.3158 54.6148 47.6956 55.0057 49.103 55.0057C50.5104 55.0057 51.8902 54.6148 53.0885 53.8767L65.7543 46.083L72.0872 42.1862" stroke="#1A1B1E" stroke-width="4" stroke-linecap="round" stroke-linejoin="round"/>
<path id="Vector 18" d="M16.9492 66.789L40.1947 51.292" stroke="black" stroke-width="3.0994"/>
<path id="Vector 19" d="M82.0352 66.789L58.7897 51.292" stroke="black" stroke-width="3.0994"/>
<g id="Group 48096065">
<path id="Vector_4" d="M89.4503 31C89.4503 38.4293 83.4293 44.4503 76 44.4503C68.5707 44.4503 62.5497 38.4293 62.5497 31C62.5497 23.5707 68.5707 17.5497 76 17.5497C83.4293 17.5497 89.4503 23.5707 89.4503 31Z" fill="#2271B1" stroke="#1A1B1E" stroke-width="3.0994"/>
<path id="Vector (Stroke)" fill-rule="evenodd" clip-rule="evenodd" d="M78.0291 26.5081C79.1458 26.0357 80.2708 27.1607 79.7983 28.2774L76.6806 35.6465C76.1889 36.8087 74.5133 36.7208 74.1459 35.5135L73.4334 33.1725C73.4116 33.1007 73.3726 33.0368 73.3211 32.9853C73.2696 32.9338 73.2057 32.8949 73.1339 32.873L70.7929 32.1605C69.5856 31.7931 69.4977 30.1175 70.66 29.6258L78.0291 26.5081Z" fill="white"/>
<path id="Vector_5" d="M82 10.4761L84.099 9.99991L85.0514 14.198L82.9523 14.6741L82 10.4761Z" fill="#A4AFC1"/>
<path id="Vector_6" d="M92 24.0718L92.5838 22.0001L96.7271 23.1677L96.1433 25.2394L92 24.0718Z" fill="#A4AFC1"/>
<path id="Vector_7" d="M89 16.9753L92.1112 14.0002L93.5987 15.5558L90.4875 18.5309L89 16.9753Z" fill="#A4AFC1"/>
</g>
<path id="Vector_8" d="M10 85.0002C7.79467 85.0002 6 83.2056 6 81.0002C6 78.7949 7.79467 77.0002 10 77.0002C12.2053 77.0002 14 78.7949 14 81.0002C14 83.2056 12.2053 85.0002 10 85.0002ZM10 79.6669C9.264 79.6669 8.66666 80.2642 8.66666 81.0002C8.66666 81.7362 9.264 82.3336 10 82.3336C10.736 82.3336 11.3333 81.7362 11.3333 81.0002C11.3333 80.2642 10.7333 79.6669 10 79.6669Z" fill="#A4AFC1"/>
</g>
</g>
</svg>
