<svg xmlns="http://www.w3.org/2000/svg" width="312" height="157" fill="none"><path fill="url(#a)" d="M5.571 113.329s138.478-79.218 306.429.44l-306.429-.44Z"/><path fill="#CDCFD4" d="M194.542 3h9.077c-.429-.743-.859-1.514-1.288-2.257-2.835 3.942-5.67 7.856-8.534 11.799-.687.943.229 2.257 1.289 2.257h9.907c1.948 0 1.948-3 0-3h-9.907c.429.743.859 1.514 1.289 2.257 2.834-3.943 5.669-7.857 8.533-11.799.687-.943-.229-2.257-1.289-2.257h-9.077c-1.919 0-1.919 3 0 3Z"/><path stroke="#C1C3CA" stroke-miterlimit="10" stroke-width="11" d="M156.374 20.978a4.454 4.454 0 0 0 2.418-5.824 4.472 4.472 0 0 0-5.837-2.412 4.454 4.454 0 0 0-2.418 5.824 4.472 4.472 0 0 0 5.837 2.412Z"/><path fill="#E3E5EA" d="M180.282 43.91c0-10.798-4.982-17.398-10.623-21.37-9.249-6.57-21.705-6.57-30.954 0-5.612 4-10.623 10.572-10.623 21.37 0 18.456-4.754 29.512-8.247 35.14-1.289 2.057.229 4.714 2.634 4.714h63.397c2.434 0 3.923-2.657 2.634-4.714-3.436-5.628-8.218-16.684-8.218-35.14Z"/><path fill="#E3E5EA" d="M154.454 92.935c5.867 0 10.623-3.594 10.623-8.028 0-4.433-4.756-8.028-10.623-8.028-5.867 0-10.623 3.594-10.623 8.028 0 4.434 4.756 8.028 10.623 8.028Z"/><path fill="#D0D2D6" d="m144.833 88.307 19.099.114s1.804-2.114.887-5.17h-20.731c-.029 0-1.059 2.399.745 5.056Zm9.306-70.566s-15.291 6.457-15.52 26.084c0 0 .573 32.454-11.482 39.94h-5.813s-3.15-1.172-1.46-4.543c1.689-3.371 7.273-12.57 7.731-25.627.458-13.284.573-20.426 8.304-28.826s18.24-7.028 18.24-7.028Z"/><path fill="#CDCFD4" d="M181.427 11.313h6.815c-.429-.742-.859-1.514-1.288-2.256-2.119 2.942-4.267 5.885-6.386 8.856-.687.943.229 2.257 1.289 2.257h7.416c1.947 0 1.947-3 0-3h-7.416c.429.743.859 1.514 1.288 2.257 2.119-2.943 4.267-5.885 6.386-8.856.687-.943-.229-2.257-1.289-2.257h-6.815c-1.947 0-1.947 3 0 3Zm-10.022 8.114h5.212c-.287-.514-.573-1-.859-1.514a1339.878 1339.878 0 0 0-4.897 6.799c-.458.629.172 1.514.859 1.514h5.698c1.289 0 1.289-2 0-2h-5.698c.286.515.573 1 .859 1.515 1.632-2.257 3.264-4.514 4.897-6.8.458-.628-.172-1.514-.859-1.514h-5.212c-1.288 0-1.288 2 0 2Z"/><path stroke="#C1C3CA" stroke-miterlimit="10" stroke-width="5" d="M86.59 84.479v8.77"/><path fill="#E5E7EA" d="M90.857 80.05c-3.007-10.113-4.21-11.141-4.21-11.141s-.916 1.114-4.209 11.142c-2.863 8.742 2.205 8.799 3.522 8.656.029.029 7.818 1.171 4.897-8.656Z"/><path stroke="#C1C3CA" stroke-miterlimit="10" stroke-width="5" d="M104.2 77.394v11.913"/><path fill="#E5E7EA" d="M110.013 71.365c-4.066-13.741-5.727-15.141-5.727-15.141s-1.26 1.514-5.698 15.141c-3.866 11.885 2.978 11.942 4.811 11.77 0 0 10.566 1.572 6.614-11.77Z"/><path stroke="#C1C3CA" stroke-miterlimit="10" stroke-width="5" d="M202.359 76.165v11.256"/><path fill="#E5E7EA" d="M207.857 70.48c-3.837-12.999-5.412-14.313-5.412-14.313s-1.203 1.428-5.383 14.313c-3.666 11.227 2.806 11.285 4.553 11.113-.029 0 9.964 1.486 6.242-11.113Z"/><path stroke="#C1C3CA" stroke-miterlimit="10" stroke-width="5" d="M220.084 84.193v7.971"/><path fill="#E5E7EA" d="M223.978 80.165c-2.72-9.2-3.837-10.142-3.837-10.142s-.83 1.028-3.808 10.142c-2.606 7.942 2.004 8 3.207 7.885 0 0 7.072 1.028 4.438-7.885Z"/><defs><linearGradient id="a" x1="157.938" x2="158.183" y1="71.546" y2="122.413" gradientUnits="userSpaceOnUse"><stop offset=".239" stop-color="#EFF1F5"/><stop offset=".366" stop-color="#F1F3F6" stop-opacity=".833"/><stop offset=".896" stop-color="#F6F7F8" stop-opacity="0"/></linearGradient></defs></svg>