<svg xmlns="http://www.w3.org/2000/svg" width="247" height="152" fill="none"><mask id="a" width="247" height="152" x="0" y="0" maskUnits="userSpaceOnUse" style="mask-type:alpha"><path fill="#C4C4C4" d="M0 .5h246.571v151.498H0z"/></mask><g mask="url(#a)"><path fill="#fff" fill-rule="evenodd" d="M246.572 108.516s-18.489-16.122-44.005-16.122c-17.449 0-27.946 3.422-40.362 9.528" clip-rule="evenodd"/><path stroke="#CDCFD5" stroke-linecap="round" stroke-width="1.5" d="M246.572 108.516s-18.489-16.122-44.005-16.122c-17.449 0-27.946 3.422-40.362 9.528"/><path fill="#fff" fill-rule="evenodd" d="M56.87 111.347s25.58-23.53 59.667-23.53c37.295 0 43.619 23.53 81.909 23.53" clip-rule="evenodd"/><path stroke="#CDCFD5" stroke-linecap="round" stroke-width="1.5" d="M56.87 111.347s25.58-23.53 59.667-23.53c37.295 0 43.619 23.53 81.909 23.53"/><path fill="#fff" fill-rule="evenodd" d="M111.93 127.599S61.137 101.347 0 112.798l111.93 14.801Z" clip-rule="evenodd"/><path stroke="#CDCFD5" stroke-linecap="round" stroke-width="1.5" d="M111.93 127.599S61.137 101.347 0 112.798"/><path fill="#fff" fill-rule="evenodd" d="M46.231 15.634A36.935 36.935 0 0 1 59.702 4.289l-13.47 11.345Z" clip-rule="evenodd"/><path stroke="#CDCFD5" stroke-linecap="round" stroke-width="1.5" d="M46.231 15.634A36.935 36.935 0 0 1 59.702 4.289"/><path fill="#fff" fill-rule="evenodd" d="M43.589 54.623a36.504 36.504 0 0 1-4.384-17.4l4.384 17.4Z" clip-rule="evenodd"/><path stroke="#CDCFD5" stroke-linecap="round" stroke-width="1.5" d="M43.589 54.623a36.504 36.504 0 0 1-4.384-17.4"/><path fill="#fff" fill-rule="evenodd" d="M75.992 73.947c-3.215 0-6.333-.412-9.305-1.185l9.305 1.184Z" clip-rule="evenodd"/><path stroke="#CDCFD5" stroke-linecap="round" stroke-width="1.5" d="M75.992 73.947c-3.215 0-6.333-.412-9.305-1.185"/><path fill="#fff" fill-rule="evenodd" d="M111.779 45.766a36.613 36.613 0 0 1-6.895 14.191" clip-rule="evenodd"/><path stroke="#CDCFD5" stroke-linecap="round" stroke-width="1.5" d="M111.779 45.766a36.613 36.613 0 0 1-6.895 14.191"/><path fill="#fff" fill-rule="evenodd" d="M109.059 21.11a36.459 36.459 0 0 1 3.577 12.848l-3.577-12.849Z" clip-rule="evenodd"/><path stroke="#CDCFD5" stroke-linecap="round" stroke-width="1.5" d="M109.059 21.11a36.459 36.459 0 0 1 3.577 12.848"/><path fill="#fff" fill-rule="evenodd" d="M75.992.5c4.632 0 9.063.854 13.145 2.414L75.992.5Z" clip-rule="evenodd"/><path stroke="#CDCFD5" stroke-linecap="round" stroke-width="1.5" d="M75.992.5c4.632 0 9.063.854 13.145 2.414"/><path fill="#fff" fill-rule="evenodd" d="M51.933 56.198a30.477 30.477 0 0 1-4.224-7.096l4.224 7.096Z" clip-rule="evenodd"/><path stroke="#CDCFD5" stroke-linecap="round" stroke-width="1.5" d="M51.933 56.198a30.477 30.477 0 0 1-4.224-7.096"/><path fill="#fff" fill-rule="evenodd" d="M97.712 58.578a30.582 30.582 0 0 1-12.745 7.788 30.63 30.63 0 0 1-9.09 1.372" clip-rule="evenodd"/><path stroke="#CDCFD5" stroke-linecap="round" stroke-width="1.5" d="M97.712 58.578a30.582 30.582 0 0 1-12.745 7.788 30.63 30.63 0 0 1-9.09 1.372"/><path fill="#fff" fill-rule="evenodd" d="M103.466 24.066a30.35 30.35 0 0 1 2.98 13.158l-2.98-13.158Z" clip-rule="evenodd"/><path stroke="#CDCFD5" stroke-linecap="round" stroke-width="1.5" d="M103.466 24.066a30.35 30.35 0 0 1 2.98 13.158"/><path fill="#fff" fill-rule="evenodd" d="M75.876 6.707a30.49 30.49 0 0 1 13.162 2.966L75.876 6.707Z" clip-rule="evenodd"/><path stroke="#CDCFD5" stroke-linecap="round" stroke-width="1.5" d="M75.876 6.707a30.49 30.49 0 0 1 13.162 2.966"/><path fill="#fff" fill-rule="evenodd" d="M48.363 23.908a30.702 30.702 0 0 1 11.772-12.85" clip-rule="evenodd"/><path stroke="#CDCFD5" stroke-linecap="round" stroke-width="1.5" d="M48.363 23.908a30.702 30.702 0 0 1 11.772-12.85"/><path fill="#fff" fill-rule="evenodd" d="M59.47 18.008a25.314 25.314 0 0 1 16.556-6.13l-16.555 6.13Z" clip-rule="evenodd"/><path stroke="#CDCFD5" stroke-linecap="round" stroke-width="1.5" d="M59.47 18.008a25.314 25.314 0 0 1 16.556-6.13"/><path fill="#fff" fill-rule="evenodd" d="M52.438 46.613a25.237 25.237 0 0 1-1.8-9.391c0-1.905.21-3.761.61-5.546" clip-rule="evenodd"/><path stroke="#CDCFD5" stroke-linecap="round" stroke-width="1.5" d="M52.438 46.613a25.237 25.237 0 0 1-1.8-9.391c0-1.905.21-3.761.61-5.546"/><path fill="#fff" fill-rule="evenodd" d="M76.026 62.567c-1.753 0-3.464-.177-5.116-.515a25.233 25.233 0 0 1-8.034-3.146" clip-rule="evenodd"/><path stroke="#CDCFD5" stroke-linecap="round" stroke-width="1.5" d="M76.026 62.567c-1.753 0-3.464-.177-5.116-.515a25.233 25.233 0 0 1-8.034-3.146"/><path fill="#fff" fill-rule="evenodd" d="M99.716 46.355a25.339 25.339 0 0 1-5.084 8.113l5.084-8.113Z" clip-rule="evenodd"/><path stroke="#CDCFD5" stroke-linecap="round" stroke-width="1.5" d="M99.716 46.355a25.339 25.339 0 0 1-5.084 8.113"/><path fill="#fff" fill-rule="evenodd" d="M92.383 17.84a25.472 25.472 0 0 1 5.816 7.03l-5.816-7.03Z" clip-rule="evenodd"/><path stroke="#CDCFD5" stroke-linecap="round" stroke-width="1.5" d="M92.383 17.84a25.472 25.472 0 0 1 5.816 7.03"/><path fill="#fff" fill-rule="evenodd" d="M96.417 37.224c0 11.266-9.15 20.399-20.435 20.399-11.286 0-20.436-9.133-20.436-20.4 0-11.265 9.15-20.399 20.436-20.399 11.285 0 20.435 9.134 20.435 20.4Z" clip-rule="evenodd"/><path stroke="#CDCFD5" stroke-linecap="round" stroke-width="1.5" d="M96.417 37.224c0 11.266-9.15 20.399-20.435 20.399-11.286 0-20.436-9.133-20.436-20.4 0-11.265 9.15-20.399 20.436-20.399 11.285 0 20.435 9.134 20.435 20.4Z" clip-rule="evenodd"/><path fill="#fff" fill-rule="evenodd" d="M235.612 53.904h-8.256c.111-.642.175-1.3.175-1.973 0-4.494-2.562-8.389-6.305-10.316-1.638-8.16-8.854-14.306-17.51-14.306-6.643 0-12.434 3.623-15.511 8.994a6.37 6.37 0 0 0-2.491-.504c-3.523 0-6.379 2.85-6.379 6.368 0 .097.009.192.014.288a8.962 8.962 0 0 0-1.574-.147c-4.932 0-8.93 3.992-8.93 8.916 0 .935.152 1.833.42 2.68h-8.209" clip-rule="evenodd"/><path stroke="#CDCFD5" stroke-linecap="round" stroke-width="1.5" d="M235.612 53.904h-8.256c.111-.642.175-1.3.175-1.973 0-4.494-2.562-8.389-6.305-10.316-1.638-8.16-8.854-14.306-17.51-14.306-6.643 0-12.434 3.623-15.511 8.994a6.37 6.37 0 0 0-2.491-.504c-3.523 0-6.379 2.85-6.379 6.368 0 .097.009.192.014.288a8.962 8.962 0 0 0-1.574-.147c-4.932 0-8.93 3.992-8.93 8.916 0 .935.152 1.833.42 2.68h-8.209"/><path fill="#fff" fill-rule="evenodd" d="M186.756 24.635h-8.143v-.005c0-2.824-2.314-5.135-5.144-5.135h-1.611c-1.015-2.988-3.804-5.177-7.099-5.299a10.802 10.802 0 0 0-10.494-8.223c-5.834 0-10.584 4.617-10.792 10.39a7.759 7.759 0 0 0-2.41 5.614c0 .933.165 1.828.471 2.658h-4.04" clip-rule="evenodd"/><path stroke="#CDCFD5" stroke-linecap="round" stroke-width="1.5" d="M186.756 24.635h-8.143v-.005c0-2.824-2.314-5.135-5.144-5.135h-1.611c-1.015-2.988-3.804-5.177-7.099-5.299a10.802 10.802 0 0 0-10.494-8.223c-5.834 0-10.584 4.617-10.792 10.39a7.759 7.759 0 0 0-2.41 5.614c0 .933.165 1.828.471 2.658h-4.04"/><path fill="#fff" fill-rule="evenodd" d="m213.23 98.53 1.001-.996c.48-.48.752-1.129.752-1.808l.008-5.047c.002-1.36.977-2.576 2.327-2.752a2.69 2.69 0 0 1 3.041 2.66l-.004 2.432h.149c.617 0 1.122.504 1.122 1.12 0 .616-.505 1.12-1.122 1.12h-.152l-.002 1.022c-.004 2.67-1.609 4.371-2.141 4.86l-6.092 6.063-.002 2.241h1.122c.617 0 1.122.504 1.122 1.12 0 .616-.505 1.12-1.122 1.12h-1.124l-.014 13.749-12.598-.018.008-11.672-3.874-3.949-.235.234a1.127 1.127 0 0 1-1.586 0 1.12 1.12 0 0 1 0-1.584l.251-.251-1.433-1.46c-3.143-2.998-3.123-5.38-3.117-8.842l.003-2.633h-.583a1.124 1.124 0 0 1-1.122-1.12c0-.616.505-1.12 1.122-1.12h.586l.008-5.064a3.545 3.545 0 0 1 4.102-3.481c1.737.273 2.975 1.843 2.971 3.598v.45l.347-.006c.617 0 1.122.504 1.122 1.12 0 .617-.505 1.12-1.122 1.12l-.35.005-.014 9.033a2.459 2.459 0 0 0 .719 1.74l2.22 2.223.005-7.498h.051a1.124 1.124 0 0 1-1.122-1.12c0-.615.505-1.12 1.122-1.12h-.047l.018-8.225c.004-2.286 1.248-4.29 3.09-5.387l-.668-1.576a1.123 1.123 0 0 1 .595-1.47 1.126 1.126 0 0 1 1.471.596l.705 1.662a6.227 6.227 0 0 1 1.116-.104 6.308 6.308 0 0 1 5.176 2.734l1.088-.627a1.126 1.126 0 0 1 1.532.41 1.123 1.123 0 0 1-.41 1.53l-1.287.74c.12.486.191.99.19 1.51l-.019 12.72 1.1-.002Z" clip-rule="evenodd"/><path stroke="#CDCFD5" stroke-linecap="round" stroke-width="1.5" d="m213.23 98.53 1.001-.996c.48-.48.752-1.129.752-1.808l.008-5.047c.002-1.36.977-2.576 2.327-2.752a2.69 2.69 0 0 1 3.041 2.66l-.004 2.432h.149c.617 0 1.122.504 1.122 1.12 0 .616-.505 1.12-1.122 1.12h-.152l-.002 1.022c-.004 2.67-1.609 4.371-2.141 4.86l-6.092 6.063-.002 2.241h1.122c.617 0 1.122.504 1.122 1.12 0 .616-.505 1.12-1.122 1.12h-1.124l-.014 13.749-12.598-.018.008-11.672-3.874-3.949-.235.234a1.127 1.127 0 0 1-1.586 0 1.12 1.12 0 0 1 0-1.584l.251-.251-1.433-1.46c-3.143-2.998-3.123-5.38-3.117-8.842l.003-2.633h-.583a1.124 1.124 0 0 1-1.122-1.12c0-.616.505-1.12 1.122-1.12h.586l.008-5.064a3.545 3.545 0 0 1 4.102-3.481c1.737.273 2.975 1.843 2.971 3.598v.45l.347-.006c.617 0 1.122.504 1.122 1.12 0 .617-.505 1.12-1.122 1.12l-.35.005-.014 9.033a2.459 2.459 0 0 0 .719 1.74l2.22 2.223.005-7.498h.051a1.124 1.124 0 0 1-1.122-1.12c0-.615.505-1.12 1.122-1.12h-.047l.018-8.225c.004-2.286 1.248-4.29 3.09-5.387l-.668-1.576a1.123 1.123 0 0 1 .595-1.47 1.126 1.126 0 0 1 1.471.596l.705 1.662a6.227 6.227 0 0 1 1.116-.104 6.308 6.308 0 0 1 5.176 2.734l1.088-.627a1.126 1.126 0 0 1 1.532.41 1.123 1.123 0 0 1-.41 1.53l-1.287.74c.12.486.191.99.19 1.51l-.019 12.72 1.1-.002Z" clip-rule="evenodd"/><path fill="#fff" fill-rule="evenodd" d="M206.978 116.535h2c.617 0 1.122.504 1.122 1.12 0 .617-.505 1.12-1.122 1.12h-2" clip-rule="evenodd"/><path stroke="#CDCFD5" stroke-linecap="round" stroke-width="1.5" d="M206.978 116.535h2c.617 0 1.122.504 1.122 1.12 0 .617-.505 1.12-1.122 1.12h-2"/><path fill="#fff" fill-rule="evenodd" d="M206.476 87.516h2c.617 0 1.122.504 1.122 1.12 0 .616-.505 1.12-1.122 1.12h-2" clip-rule="evenodd"/><path stroke="#CDCFD5" stroke-linecap="round" stroke-width="1.5" d="M206.476 87.516h2c.617 0 1.122.504 1.122 1.12 0 .616-.505 1.12-1.122 1.12h-2"/><path fill="#fff" fill-rule="evenodd" d="M211.489 98.523h1.999c.617 0 1.122.505 1.122 1.12 0 .617-.505 1.12-1.122 1.12h-1.999" clip-rule="evenodd"/><path stroke="#CDCFD5" stroke-linecap="round" stroke-width="1.5" d="M211.489 98.523h1.999c.617 0 1.122.505 1.122 1.12 0 .617-.505 1.12-1.122 1.12h-1.999M227.744 125.434h-44.119"/><path fill="#fff" fill-rule="evenodd" d="M201.58 96.26h-2a1.124 1.124 0 0 1-1.122-1.12c0-.616.505-1.12 1.122-1.12h2" clip-rule="evenodd"/><path stroke="#CDCFD5" stroke-linecap="round" stroke-width="1.5" d="M201.58 96.26h-2a1.124 1.124 0 0 1-1.122-1.12c0-.616.505-1.12 1.122-1.12h2"/><path fill="#fff" fill-rule="evenodd" d="M194.95 88.52h1.999c.617 0 1.122.504 1.122 1.12 0 .616-.505 1.12-1.122 1.12h-1.999" clip-rule="evenodd"/><path stroke="#CDCFD5" stroke-linecap="round" stroke-width="1.5" d="M194.95 88.52h1.999c.617 0 1.122.504 1.122 1.12 0 .616-.505 1.12-1.122 1.12h-1.999"/><path fill="#fff" fill-rule="evenodd" d="m137.456 99.308 1.947-1.938a4.968 4.968 0 0 0 1.466-3.518l.015-9.825c.005-2.648 1.901-5.014 4.53-5.357 3.184-.416 5.924 2.078 5.919 5.177l-.007 4.734h.289a2.19 2.19 0 0 1 2.185 2.18c0 1.2-.984 2.181-2.185 2.181h-.296l-.002 1.99c-.008 5.195-3.134 8.507-4.168 9.46l-11.858 11.801-.005 4.363h2.184c1.202 0 2.185.981 2.185 2.18 0 1.199-.983 2.18-2.185 2.18h-2.188l-.027 26.763-24.524-.037.017-22.72-7.54-7.686-.458.456a2.192 2.192 0 0 1-3.088 0 2.183 2.183 0 0 1 0-3.083l.489-.489-2.787-2.842c-6.12-5.836-6.08-10.471-6.07-17.21l.007-5.126h-1.135a2.188 2.188 0 0 1-2.183-2.18c0-1.2.982-2.18 2.183-2.18h1.142l.014-9.858c.007-4.137 3.723-7.445 7.985-6.776 3.382.532 5.79 3.588 5.784 7.005l-.002.875.677-.01c1.201 0 2.184.98 2.184 2.18 0 1.199-.983 2.18-2.184 2.18l-.682.007-.027 17.585a4.786 4.786 0 0 0 1.4 3.388l4.32 4.326.011-14.594h.098a2.189 2.189 0 0 1-2.184-2.18c0-1.2.983-2.18 2.184-2.18h-.092l.036-16.012c.006-4.45 2.431-8.35 6.016-10.487l-1.302-3.068a2.185 2.185 0 0 1 1.16-2.858 2.192 2.192 0 0 1 2.863 1.158l1.372 3.235a12.104 12.104 0 0 1 2.171-.202c4.169.007 7.862 2.12 10.075 5.322l2.117-1.22a2.194 2.194 0 0 1 2.985.797 2.185 2.185 0 0 1-.8 2.978l-2.504 1.444c.235.943.371 1.924.37 2.938l-.037 24.757 2.14-.004Z" clip-rule="evenodd"/><path stroke="#CDCFD5" stroke-linecap="round" stroke-width="1.5" d="m137.456 99.308 1.947-1.938a4.968 4.968 0 0 0 1.466-3.518l.015-9.825c.005-2.648 1.901-5.014 4.53-5.357 3.184-.416 5.924 2.078 5.919 5.177l-.007 4.734h.289a2.19 2.19 0 0 1 2.185 2.18c0 1.2-.984 2.181-2.185 2.181h-.296l-.002 1.99c-.008 5.195-3.134 8.507-4.168 9.46l-11.858 11.801-.005 4.363h2.184c1.202 0 2.185.981 2.185 2.18 0 1.199-.983 2.18-2.185 2.18h-2.188l-.027 26.763-24.524-.037.017-22.72-7.54-7.686-.458.456a2.192 2.192 0 0 1-3.088 0 2.183 2.183 0 0 1 0-3.083l.489-.489-2.787-2.842c-6.12-5.836-6.08-10.471-6.07-17.21l.007-5.126h-1.135a2.188 2.188 0 0 1-2.183-2.18c0-1.2.982-2.18 2.183-2.18h1.142l.014-9.858c.007-4.137 3.723-7.445 7.985-6.776 3.382.532 5.79 3.588 5.784 7.005l-.002.875.677-.01c1.201 0 2.184.98 2.184 2.18 0 1.199-.983 2.18-2.184 2.18l-.682.007-.027 17.585a4.786 4.786 0 0 0 1.4 3.388l4.32 4.326.011-14.594h.098a2.189 2.189 0 0 1-2.184-2.18c0-1.2.983-2.18 2.184-2.18h-.092l.036-16.012c.006-4.45 2.431-8.35 6.016-10.487l-1.302-3.068a2.185 2.185 0 0 1 1.16-2.858 2.192 2.192 0 0 1 2.863 1.158l1.372 3.235a12.104 12.104 0 0 1 2.171-.202c4.169.007 7.862 2.12 10.075 5.322l2.117-1.22a2.194 2.194 0 0 1 2.985.797 2.185 2.185 0 0 1-.8 2.978l-2.504 1.444c.235.943.371 1.924.37 2.938l-.037 24.757 2.14-.004Z" clip-rule="evenodd"/><path fill="#fff" fill-rule="evenodd" d="M125.286 134.352h3.893c1.201 0 2.184.98 2.184 2.18 0 1.199-.983 2.18-2.184 2.18h-3.893" clip-rule="evenodd"/><path stroke="#CDCFD5" stroke-linecap="round" stroke-width="1.5" d="M125.286 134.352h3.893c1.201 0 2.184.98 2.184 2.18 0 1.199-.983 2.18-2.184 2.18h-3.893"/><path fill="#fff" fill-rule="evenodd" d="M124.31 77.867h3.893c1.201 0 2.184.981 2.184 2.18 0 1.2-.983 2.18-2.184 2.18h-3.893" clip-rule="evenodd"/><path stroke="#CDCFD5" stroke-linecap="round" stroke-width="1.5" d="M124.31 77.867h3.893c1.201 0 2.184.981 2.184 2.18 0 1.2-.983 2.18-2.184 2.18h-3.893"/><path fill="#fff" fill-rule="evenodd" d="M134.065 99.293h3.893c1.201 0 2.184.981 2.184 2.18 0 1.2-.983 2.181-2.184 2.181h-3.893" clip-rule="evenodd"/><path stroke="#CDCFD5" stroke-linecap="round" stroke-width="1.5" d="M134.065 99.293h3.893c1.201 0 2.184.981 2.184 2.18 0 1.2-.983 2.181-2.184 2.181h-3.893M210.75 151.676H22.006"/><path fill="#fff" fill-rule="evenodd" d="M114.779 94.888h-3.893a2.189 2.189 0 0 1-2.184-2.18c0-1.2.983-2.18 2.184-2.18h3.893" clip-rule="evenodd"/><path stroke="#CDCFD5" stroke-linecap="round" stroke-width="1.5" d="M114.779 94.888h-3.893a2.189 2.189 0 0 1-2.184-2.18c0-1.2.983-2.18 2.184-2.18h3.893"/><path fill="#fff" fill-rule="evenodd" d="M101.873 79.816h3.893c1.201 0 2.183.981 2.183 2.18 0 1.2-.982 2.181-2.183 2.181h-3.893" clip-rule="evenodd"/><path stroke="#CDCFD5" stroke-linecap="round" stroke-width="1.5" d="M101.873 79.816h3.893c1.201 0 2.183.981 2.183 2.18 0 1.2-.982 2.181-2.183 2.181h-3.893"/><path fill="#fff" fill-rule="evenodd" d="m47.59 100.63 1.077-1.07a2.75 2.75 0 0 0 .81-1.945l.008-5.431c.002-1.463 1.05-2.771 2.504-2.961a2.894 2.894 0 0 1 3.271 2.862l-.003 2.616h.16a1.21 1.21 0 0 1 1.206 1.206 1.21 1.21 0 0 1-1.206 1.205h-.164l-.002 1.1c-.004 2.871-1.731 4.701-2.304 5.228l-6.554 6.523-.002 2.411h1.207a1.21 1.21 0 0 1 1.208 1.205 1.21 1.21 0 0 1-1.208 1.205h-1.21l-.015 14.792-13.554-.019.009-12.559-4.167-4.248-.254.253a1.214 1.214 0 0 1-1.707 0 1.209 1.209 0 0 1 0-1.705l.27-.27-1.54-1.57c-3.383-3.227-3.36-5.789-3.355-9.513l.004-2.833h-.627a1.21 1.21 0 0 1-1.207-1.206 1.21 1.21 0 0 1 1.207-1.205h.631l.008-5.448a3.813 3.813 0 0 1 4.413-3.745c1.87.293 3.2 1.983 3.197 3.871l-.001.484.374-.006a1.21 1.21 0 0 1 1.207 1.205 1.21 1.21 0 0 1-1.207 1.205l-.377.005-.015 9.719a2.641 2.641 0 0 0 .774 1.872l2.388 2.392.006-8.067h.054a1.21 1.21 0 0 1-1.207-1.205 1.21 1.21 0 0 1 1.207-1.205h-.051l.02-8.85c.004-2.459 1.344-4.614 3.325-5.796l-.72-1.696c-.258-.61.03-1.32.641-1.58a1.212 1.212 0 0 1 1.583.64l.758 1.789c.391-.07.79-.113 1.2-.112a6.782 6.782 0 0 1 5.569 2.941l1.17-.674a1.212 1.212 0 0 1 1.65.44 1.207 1.207 0 0 1-.442 1.647l-1.384.798c.129.521.205 1.063.204 1.623l-.02 13.684 1.183-.002Z" clip-rule="evenodd"/><path stroke="#CDCFD5" stroke-linecap="round" stroke-width="1.5" d="m47.59 100.63 1.077-1.07a2.75 2.75 0 0 0 .81-1.945l.008-5.431c.002-1.463 1.05-2.771 2.504-2.961a2.894 2.894 0 0 1 3.271 2.862l-.003 2.616h.16a1.21 1.21 0 0 1 1.206 1.206 1.21 1.21 0 0 1-1.206 1.205h-.164l-.002 1.1c-.004 2.871-1.731 4.701-2.304 5.228l-6.554 6.523-.002 2.411h1.207a1.21 1.21 0 0 1 1.208 1.205 1.21 1.21 0 0 1-1.208 1.205h-1.21l-.015 14.792-13.554-.019.009-12.559-4.167-4.248-.254.253a1.214 1.214 0 0 1-1.707 0 1.209 1.209 0 0 1 0-1.705l.27-.27-1.54-1.57c-3.383-3.227-3.36-5.789-3.355-9.513l.004-2.833h-.627a1.21 1.21 0 0 1-1.207-1.206 1.21 1.21 0 0 1 1.207-1.205h.631l.008-5.448a3.813 3.813 0 0 1 4.413-3.745c1.87.293 3.2 1.983 3.197 3.871l-.001.484.374-.006a1.21 1.21 0 0 1 1.207 1.205 1.21 1.21 0 0 1-1.207 1.205l-.377.005-.015 9.719a2.641 2.641 0 0 0 .774 1.872l2.388 2.392.006-8.067h.054a1.21 1.21 0 0 1-1.207-1.205 1.21 1.21 0 0 1 1.207-1.205h-.051l.02-8.85c.004-2.459 1.344-4.614 3.325-5.796l-.72-1.696c-.258-.61.03-1.32.641-1.58a1.212 1.212 0 0 1 1.583.64l.758 1.789c.391-.07.79-.113 1.2-.112a6.782 6.782 0 0 1 5.569 2.941l1.17-.674a1.212 1.212 0 0 1 1.65.44 1.207 1.207 0 0 1-.442 1.647l-1.384.798c.129.521.205 1.063.204 1.623l-.02 13.684 1.183-.002Z" clip-rule="evenodd"/><path fill="#fff" fill-rule="evenodd" d="M40.862 119.996h2.152a1.21 1.21 0 0 1 1.207 1.205 1.21 1.21 0 0 1-1.207 1.205h-2.152" clip-rule="evenodd"/><path stroke="#CDCFD5" stroke-linecap="round" stroke-width="1.5" d="M40.862 119.996h2.152a1.21 1.21 0 0 1 1.207 1.205 1.21 1.21 0 0 1-1.207 1.205h-2.152"/><path fill="#fff" fill-rule="evenodd" d="M40.324 88.777h2.151a1.21 1.21 0 0 1 1.208 1.206 1.21 1.21 0 0 1-1.208 1.204h-2.151" clip-rule="evenodd"/><path stroke="#CDCFD5" stroke-linecap="round" stroke-width="1.5" d="M40.324 88.777h2.151a1.21 1.21 0 0 1 1.208 1.206 1.21 1.21 0 0 1-1.208 1.204h-2.151"/><path fill="#fff" fill-rule="evenodd" d="M45.716 100.621h2.152a1.21 1.21 0 0 1 1.207 1.205 1.21 1.21 0 0 1-1.207 1.205h-2.152" clip-rule="evenodd"/><path stroke="#CDCFD5" stroke-linecap="round" stroke-width="1.5" d="M45.716 100.621h2.152a1.21 1.21 0 0 1 1.207 1.205 1.21 1.21 0 0 1-1.207 1.205h-2.152M63.204 129.575H15.738"/><path fill="#fff" fill-rule="evenodd" d="M35.056 98.187h-2.152a1.21 1.21 0 0 1-1.208-1.204 1.21 1.21 0 0 1 1.208-1.206h2.152" clip-rule="evenodd"/><path stroke="#CDCFD5" stroke-linecap="round" stroke-width="1.5" d="M35.056 98.187h-2.152a1.21 1.21 0 0 1-1.208-1.204 1.21 1.21 0 0 1 1.208-1.206h2.152"/><path fill="#fff" fill-rule="evenodd" d="M27.922 89.856h2.152a1.21 1.21 0 0 1 1.207 1.205 1.21 1.21 0 0 1-1.207 1.204h-2.152" clip-rule="evenodd"/><path stroke="#CDCFD5" stroke-linecap="round" stroke-width="1.5" d="M27.922 89.856h2.152a1.21 1.21 0 0 1 1.207 1.205 1.21 1.21 0 0 1-1.207 1.204h-2.152"/></g></svg>