<svg xmlns="http://www.w3.org/2000/svg" width="32" height="32" fill="none"><rect width="31" height="31" x=".5" y=".5" stroke="#3E64DE" rx="5.5"/><path fill="#3E64DE" d="M15.847 7.333c.133 0 .264.025.388.072.133.043.256.112.362.203.109.102.195.226.254.363l2.18 4.433 4.934.725a.985.985 0 0 1 .399.141c.115.074.22.163.311.264.078.11.136.233.174.363.035.12.053.244.054.37a.858.858 0 0 1-.087.387c-.06.118-.138.225-.231.319l-3.59 3.502.847 4.934a.976.976 0 0 1 0 .399 1.17 1.17 0 0 1-.152.362.94.94 0 0 1-.264.293c-.22.158-.492.228-.76.196a.93.93 0 0 1-.363-.134l-4.456-2.3-4.44 2.3a.93.93 0 0 1-.363.134c-.269.032-.54-.038-.76-.196a.94.94 0 0 1-.265-.293 1.172 1.172 0 0 1-.152-.363.978.978 0 0 1 0-.398l.847-4.934-3.604-3.484c-.09-.1-.165-.214-.22-.337a1.108 1.108 0 0 1-.098-.388c0-.129.018-.257.054-.38.038-.133.104-.256.192-.362a.967.967 0 0 1 .692-.395l4.933-.725 2.21-4.455a.974.974 0 0 1 .612-.544c.116-.044.239-.068.362-.072Z"/></svg>