<svg xmlns="http://www.w3.org/2000/svg" width="85" height="123"><g fill="none" fill-rule="nonzero"><path fill="#F6F6F6" d="M66.625 121.7h-48.25a5.584 5.584 0 0 1-5.584-5.584V6.695c0-3.084 2.5-5.584 5.584-5.584h48.25c3.084 0 5.584 2.5 5.584 5.584v109.42c0 3.084-2.5 5.584-5.584 5.584Z"/><circle cx="42.544" cy="61.422" r="15.045" fill="#F8A201" transform="rotate(-79.982 42.544 61.422)"/><path fill="#E1E1E1" d="M66.625 1.111h-4.467c3.084 0 5.584 2.5 5.584 5.584v109.42c0 3.084-2.5 5.584-5.584 5.584h4.467c3.084 0 5.584-2.5 5.584-5.584V6.695c0-3.084-2.5-5.584-5.584-5.584Z"/><path fill="#FFF" d="M18.375 121.699h4.467a5.584 5.584 0 0 1-5.584-5.584V6.695c0-3.084 2.5-5.584 5.584-5.584h-4.467a5.584 5.584 0 0 0-5.584 5.584v109.42c0 3.084 2.5 5.584 5.584 5.584ZM12.791 9.027H3.936c-2.525 0-3.753 3.086-1.918 4.82L12.79 24.07V9.027ZM12.791 46.363H3.936c-2.525 0-3.753 3.086-1.918 4.82L12.79 61.406V46.363ZM12.791 83.7H3.936c-2.525 0-3.753 3.086-1.918 4.82L12.79 98.743V83.7Z"/><g fill="#8C94A8"><path d="M66.625 122.81h-48.25a6.703 6.703 0 0 1-6.696-6.694V6.695A6.703 6.703 0 0 1 18.375 0h48.25a6.703 6.703 0 0 1 6.696 6.695v109.42a6.703 6.703 0 0 1-6.696 6.696ZM18.375 2.223a4.479 4.479 0 0 0-4.473 4.473v109.42a4.478 4.478 0 0 0 4.473 4.473h48.25a4.479 4.479 0 0 0 4.473-4.473V6.695a4.478 4.478 0 0 0-4.473-4.473h-48.25Z"/><path d="M17.258 29.178a1.112 1.112 0 0 1-1.111-1.11V21.4a1.112 1.112 0 0 1 2.222 0v6.666a1.11 1.11 0 0 1-1.111 1.111ZM12.79 25.18c-.278 0-.553-.106-.764-.306L1.253 14.654a3.881 3.881 0 0 1-.944-4.278 3.884 3.884 0 0 1 3.627-2.46h8.855c.613 0 1.11.498 1.11 1.111V24.07a1.11 1.11 0 0 1-1.11 1.11ZM3.937 10.137c-1.058 0-1.463.81-1.562 1.06-.099.248-.362 1.115.407 1.842l8.898 8.443V10.138H3.936ZM12.79 62.516c-.278 0-.553-.105-.764-.305L1.253 51.99a3.881 3.881 0 0 1-.944-4.277 3.884 3.884 0 0 1 3.627-2.46h8.855c.613 0 1.11.498 1.11 1.11v15.043a1.11 1.11 0 0 1-1.11 1.11ZM3.937 47.475c-1.058 0-1.463.81-1.562 1.06-.099.248-.362 1.115.407 1.842l8.898 8.442V47.475H3.936ZM12.79 99.853c-.278 0-.553-.105-.764-.305L1.252 89.327a3.88 3.88 0 0 1-.943-4.278 3.883 3.883 0 0 1 3.627-2.46h8.854c.613 0 1.111.498 1.111 1.111v15.042a1.11 1.11 0 0 1-1.11 1.11ZM3.937 84.81c-1.058 0-1.463.811-1.562 1.06-.099.248-.362 1.116.407 1.842l8.898 8.443V84.811H3.936Z"/></g><path fill="#F6F6F6" d="M72.209 9.027h8.855c2.525 0 3.753 3.086 1.918 4.82L72.21 24.07V9.027ZM72.209 46.363h8.855c2.525 0 3.753 3.086 1.918 4.82L72.21 61.406V46.363ZM72.209 83.7h8.855c2.525 0 3.753 3.086 1.918 4.82L72.21 98.743V83.7Z"/><path fill="#8C94A8" d="M72.21 25.18a1.11 1.11 0 0 1-1.111-1.111V9.026c0-.613.497-1.11 1.11-1.11h8.855c1.609 0 3.032.965 3.627 2.46a3.884 3.884 0 0 1-.945 4.278l-10.772 10.22c-.21.2-.486.304-.765.304Zm1.11-15.042v11.345l8.898-8.441c.77-.729.507-1.596.408-1.844-.1-.25-.504-1.06-1.562-1.06H73.32ZM72.21 62.516a1.11 1.11 0 0 1-1.111-1.111V46.364c0-.613.497-1.111 1.11-1.111h8.855c1.609 0 3.032.965 3.627 2.46a3.884 3.884 0 0 1-.945 4.279l-10.772 10.22c-.21.2-.486.304-.765.304Zm1.11-15.041v11.344l8.898-8.44c.77-.729.507-1.596.408-1.845-.1-.248-.504-1.059-1.562-1.059H73.32ZM72.21 99.853a1.11 1.11 0 0 1-1.111-1.111V83.7c0-.613.497-1.111 1.11-1.111h8.855c1.609 0 3.032.965 3.626 2.46a3.883 3.883 0 0 1-.944 4.279l-10.772 10.22c-.21.2-.486.305-.765.305Zm1.11-15.042v11.345l8.898-8.441c.77-.728.507-1.596.408-1.844-.1-.248-.504-1.06-1.562-1.06H73.32Z"/><path fill="#000" d="M42.5 83.7c-.567 0-1.125.034-1.675.095 7.518.833 13.367 7.206 13.367 14.947 0 7.74-5.848 14.112-13.367 14.946.55.061 1.108.095 1.675.095 8.307 0 15.042-6.734 15.042-15.041 0-8.308-6.735-15.042-15.042-15.042Z" opacity=".1"/><path fill="#FFF" d="M42.5 113.783c.567 0 1.125-.034 1.675-.095-7.518-.833-13.367-7.205-13.367-14.946 0-7.74 5.848-14.113 13.367-14.947A15.162 15.162 0 0 0 42.5 83.7c-8.307 0-15.042 6.734-15.042 15.042 0 8.307 6.735 15.041 15.042 15.041Z" opacity=".4"/><path fill="#000" d="M42.5 46.363c-.567 0-1.125.035-1.675.095 7.518.834 13.367 7.206 13.367 14.947 0 7.74-5.848 14.113-13.367 14.947.55.06 1.108.095 1.675.095 8.307 0 15.042-6.735 15.042-15.042 0-8.307-6.735-15.042-15.042-15.042Z" opacity=".1"/><path fill="#FFF" d="M42.5 76.447c.567 0 1.125-.034 1.675-.095-7.518-.834-13.367-7.206-13.367-14.947 0-7.74 5.848-14.113 13.367-14.947a15.162 15.162 0 0 0-1.675-.095c-8.307 0-15.042 6.735-15.042 15.042 0 8.307 6.735 15.042 15.042 15.042Z" opacity=".4"/><path fill="#000" d="M42.5 9.027c-.567 0-1.125.034-1.675.095 7.518.834 13.367 7.206 13.367 14.947 0 7.74-5.848 14.113-13.367 14.947.55.06 1.108.095 1.675.095 8.307 0 15.042-6.735 15.042-15.042 0-8.308-6.735-15.042-15.042-15.042Z" opacity=".1"/><path fill="#FFF" d="M42.5 39.11c.567 0 1.125-.034 1.675-.095-7.518-.833-13.367-7.206-13.367-14.947 0-7.74 5.848-14.112 13.367-14.946a15.162 15.162 0 0 0-1.675-.095c-8.307 0-15.042 6.734-15.042 15.041 0 8.308 6.735 15.042 15.042 15.042Z" opacity=".4"/><path fill="#8C94A8" d="M42.5 114.894c-8.907 0-16.153-7.246-16.153-16.152 0-8.907 7.246-16.153 16.153-16.153 8.907 0 16.153 7.246 16.153 16.153 0 8.906-7.246 16.152-16.153 16.152Zm0-30.083c-7.681 0-13.93 6.25-13.93 13.93 0 7.682 6.249 13.931 13.93 13.931s13.93-6.25 13.93-13.93c0-7.681-6.249-13.93-13.93-13.93ZM42.5 77.558c-8.907 0-16.153-7.246-16.153-16.153 0-8.907 7.246-16.152 16.153-16.152 8.907 0 16.153 7.246 16.153 16.153 0 8.906-7.246 16.152-16.153 16.152Zm0-30.083c-7.681 0-13.93 6.25-13.93 13.93 0 7.682 6.249 13.931 13.93 13.931s13.93-6.25 13.93-13.93c0-7.682-6.249-13.931-13.93-13.931ZM42.5 40.221c-8.907 0-16.153-7.246-16.153-16.153 0-8.906 7.246-16.152 16.153-16.152 8.907 0 16.153 7.246 16.153 16.152 0 8.907-7.246 16.153-16.153 16.153Zm0-30.083c-7.681 0-13.93 6.25-13.93 13.93C28.57 31.752 34.818 38 42.5 38s13.93-6.249 13.93-13.93c0-7.682-6.249-13.93-13.93-13.93Z"/></g></svg>