<svg width="46" height="50" fill="none" xmlns="http://www.w3.org/2000/svg"><path d="m31.71 11.8-.03-.72c-.15-3.73-.23-5.6 1-6.15 1.24-.55 2.6.76 5.31 3.4l2.26 2.18c1.75 1.7 2.62 2.54 2.12 3.79s-1.62 1.25-3.84 1.26c-1.1 0-2.18-.02-3.14-.06-1.64-.06-2.46-.08-3.01-.64-.56-.55-.6-1.38-.67-3.06Z" stroke="#3E64DE" stroke-width="3"/><path d="M26.28 2.39h-2.55c-7.54 0-11.31 0-13.66 2.34-2.34 2.34-2.34 6.12-2.34 13.66V32c0 7.54 0 11.31 2.34 13.66C12.42 48 16.2 48 23.73 48h4.34c7.54 0 11.31 0 13.65-2.34 2.35-2.35 2.35-6.12 2.35-13.66V20.17c0-3.29 0-4.93-.62-6.4-.61-1.48-1.78-2.64-4.1-4.95l-1.8-1.78c-2.3-2.3-3.46-3.44-4.92-4.05-1.47-.6-3.1-.6-6.35-.6Z" stroke="#3E64DE" stroke-width="3"/><rect y="24.6" width="33.09" height="12.91" rx="3" fill="#3E64DE"/><path d="M5.44 34.86c1.51 0 2.38-.87 2.38-2.37v-4.86H6.37v4.85c0 .71-.33 1.1-.94 1.1-.58 0-.9-.4-.92-.94v-.03H3.09v.04c.04 1.34.91 2.2 2.35 2.2Zm6.14 0c1.75 0 2.8-.87 2.8-2.23 0-1.12-.65-1.73-2.1-2.02l-.75-.16c-.8-.16-1.15-.42-1.15-.87 0-.5.45-.86 1.2-.86.71 0 1.21.34 1.29.9v.05h1.37v-.1c-.07-1.24-1.06-2.06-2.67-2.06-1.54 0-2.65.86-2.65 2.16 0 1.07.7 1.74 2.07 2.02l.73.15c.87.18 1.2.42 1.2.9 0 .55-.5.9-1.3.9s-1.37-.34-1.46-.89l-.01-.05H8.77v.08c.09 1.3 1.15 2.08 2.8 2.08Zm6.83 0c2.07 0 3.36-1.42 3.36-3.67v-.01c0-2.26-1.3-3.67-3.36-3.67-2.05 0-3.35 1.4-3.35 3.67 0 2.26 1.29 3.68 3.35 3.68Zm0-1.26c-1.14 0-1.87-.93-1.87-2.41v-.01c0-1.49.74-2.4 1.87-2.4 1.15 0 1.87.92 1.87 2.4s-.7 2.42-1.87 2.42Zm4.3 1.13h1.45v-4.65h.03l3.15 4.65h1.27v-7.1h-1.46v4.62h-.02l-3.15-4.62h-1.27v7.1Z" fill="#fff"/></svg>