<svg xmlns="http://www.w3.org/2000/svg" width="20" height="20" fill="none" viewBox="0 0 48 48"><path fill="#737787" d="M26.852 33.5h-3.75c-.528 0-.938.469-.938.938v1.874c0 .528.41.938.938.938h3.75c.468 0 .937-.41.937-.938v-1.874c0-.47-.469-.938-.937-.938Zm7.5-15h-11.25c-.528 0-.938.469-.938.938v1.875c0 .527.41.937.938.937h11.25c.468 0 .937-.41.937-.938v-1.875c0-.468-.469-.937-.937-.937Zm-3.75 7.5h-7.5c-.528 0-.938.469-.938.938v1.875c0 .527.41.937.938.937h7.5c.468 0 .937-.41.937-.938v-1.875c0-.468-.469-.937-.937-.937Zm7.5-15h-15c-.528 0-.938.469-.938.938v1.874c0 .528.41.938.938.938h15c.468 0 .937-.41.937-.938v-1.874c0-.47-.469-.938-.937-.938ZM16.54 18.5h2.812c.82 0 1.23-1.055.644-1.64l-4.687-5.626c-.176-.117-.469-.234-.645-.234-.234 0-.527.117-.703.234L9.274 16.86c-.586.586-.176 1.641.703 1.641h2.812v17.813c0 .468.41.937.938.937h1.875c.469 0 .937-.469.937-.938V18.5Z"/></svg>