<svg xmlns="http://www.w3.org/2000/svg" width="20" height="20" fill="none" viewBox="0 0 48 48"><path fill="#737787" d="M26.852 33.5h-3.75c-.527 0-.938.469-.938.938v1.874c0 .528.41.938.938.938h3.75c.469 0 .937-.41.937-.938v-1.874c0-.47-.468-.938-.937-.938Zm-7.5-3.75h-2.813V11.937c0-.468-.468-.937-.937-.937h-1.875c-.527 0-.938.469-.938.938V29.75H9.977c-.879 0-1.29 1.055-.703 1.64l4.687 5.626c.176.117.469.234.703.234.176 0 .47-.117.645-.234l4.687-5.625c.586-.586.176-1.641-.644-1.641Zm15-11.25h-11.25c-.527 0-.938.469-.938.938v1.875c0 .527.41.937.938.937h11.25c.469 0 .937-.41.937-.938v-1.875c0-.468-.468-.937-.937-.937Zm-3.75 7.5h-7.5c-.527 0-.938.469-.938.938v1.875c0 .527.41.937.938.937h7.5c.469 0 .937-.41.937-.938v-1.875c0-.468-.468-.937-.937-.937Zm7.5-15h-15c-.527 0-.938.469-.938.938v1.874c0 .528.41.938.938.938h15c.469 0 .937-.41.937-.938v-1.874c0-.47-.468-.938-.937-.938Z"/></svg>