<svg xmlns="http://www.w3.org/2000/svg" width="781" height="553" fill="none"><g clip-path="url(#a)"><path stroke="#919DF2" stroke-miterlimit="10" stroke-width="2" d="M63.032 264.513.03 562.013"/><path stroke="#002F79" stroke-miterlimit="10" stroke-width="2" d="m719.417 515.698-175.376 2.675M685.544 370.854l43.997 190.864M569.969 375.506l-34.052 186.352"/><path fill="#19123A" d="M406.174 467.779s-10.55-4.147-11.147-18.883c0 0-6.643.186-12.681 1.155-5.419.868-25.789-.217-34.076-.729a19.604 19.604 0 0 1-6.666-1.612c-2.946-1.302-6.976-3.705-8.395-3.62-2.806.171-4.418 4.271-5.751 6.752-.403.752-.171 1.666.519 2.023l69.321 35.672c1.566.806 3.55.124 4.535-1.558 2.666-4.573 8.953-13.945 7.72-18.294a.983.983 0 0 0-.891-.72l-2.488-.186Z"/><path fill="#DCE0F9" d="m347.983 261.73 407.509-6.046-117.783-93.111-530.462 10.372L5.23 266.202l342.753-4.472Z"/><path fill="#C0C3ED" d="M494.253 208.834s-20.619-7.217-42.276-4.124c-21.658 3.093-44.338 37.122-44.338 37.122s60.833-7.217 83.514 3.092l22.68-34.028-19.58-2.062ZM287.77 230.546s11.209-12.496 20.534-12.635c9.325-.14 51.795-.767 51.795-.767s-38.765 40.85-40.61 56.492l-55.12-4.201c.007 0 1.953-18.022 23.401-38.889Z"/><path fill="#69AAFF" d="M493.478 205.229s-20.619-7.216-42.276-4.124c-21.65 3.093-44.338 37.122-44.338 37.122s60.833-7.216 83.514 3.093l22.68-34.029-19.58-2.062Z"/><path fill="#FFDA68" d="M285.197 227.973s11.209-12.496 20.534-12.635c9.325-.14 51.795-.768 51.795-.768s-38.765 40.85-40.61 56.493l-55.121-4.201c.008 0 1.954-18.023 23.402-38.889Z"/><path fill="#82403A" d="M486.835 212.059s-12.534 7.619-17.944 6.805c-5.411-.814-20.263-5.371-29.068-5.247-8.814.131-26.014 8.898-22.836 10.968 5.046 3.279 16.123 1.372 24.82-.093 1.589-.264 3.194.372 4.209 1.682 1.946 2.519-12.798 10.472-8.465 11.162 13.891 2.232 35.215-6.581 39.479-6.348 4.263.232 28.742 2.263 28.742 2.263l-18.937-21.192Z"/><path fill="#C0C3ED" d="m260.307 180.595-38.556 16.542 280.091-2.861 35.494-17.355-277.029 3.674Z"/><path fill="#19123A" d="M536.235 497.452s-9.41 10.929-23.673 12.487c0 0-6.581 7.496-8.588 12.488-1.737 4.325-8.333 9.937-13.271 15.867a23.556 23.556 0 0 1-4.837 4.395c-2.558 1.76-6.527 3.946-7.232 5.039-3.372 5.24 2.302 11.418 3.349 13.177.318.535 1.1.651 1.736.256l64.112-43.881c1.442-.899 2.047-2.573 1.38-3.829-1.814-3.411-6.658-17.743-10.464-18.208-.365-.047-.76.131-1.008.426l-1.504 1.783Z"/><path stroke="#fff" stroke-miterlimit="10" d="m297.343 228.725 35.13.782"/><path fill="#82403A" d="M285.53 246.382c.442.179 12.325-4.286 18.41-6.054 7.41-2.147 18.076-8.418 32.3-9.069 14.232-.651-10.1 11.651-10.643 18.193-.535 6.542 8.333 4.333 6.535 8.108-1.799 3.775-22.138-.008-25.355-1.256-3.209-1.248-13.372 1.527-13.372 1.527l-7.875-11.449Z"/><path fill="#B65131" d="M195.799 67.324a2.892 2.892 0 1 0 0-5.784 2.892 2.892 0 0 0 0 5.784Z"/><path fill="#358DED" d="M97.34 142.187s-67.957 143.742.07 147.347c0 .008-20.363-57.749-.07-147.347Z"/><path fill="#82403A" d="m149.26 108.251 3.937-23.603s13.248-11.177 20.922-18.859l9.076 40.145-33.935 2.317Z"/><path fill="#82403A" d="M198.094 37.868s7.084 53.446-17.209 59.105l-8.348-32.293s.302-14.247 9.248-18.619c8.945-4.38 16.309-8.193 16.309-8.193Z"/><path fill="#FBB000" d="m584.216 237.747 10.054-42.23-11.596-3.426-20.883 34.238c5.411 13.697 22.425 11.418 22.425 11.418Z"/><path fill="#19133A" d="M206.155 9.653c3.24-4.372 15.852 19.75-25.083 38.261a11.843 11.843 0 0 0-6.674 8.116c-.651 2.822-1.016 6.294-.272 9.76 0 0-12.495 15.03-20.921 18.858-8.426 3.837-25.045-9.17-23.053-53.19 0 0-.108-7.418 6.806-5.93 0 0-5.736-29.595 22.991-22.076 28.727 7.519 39.447 15.31 46.206 6.201Z"/><path fill="#FFDA68" d="M112.076 311.471s-5.069 53.191 59.554 50.113c64.624-3.077 105.978-2.1 105.978-2.1s-31.037 122.899-25.634 129.712c5.403 6.814 18.293 18.278 32.378 3.233 14.084-15.054 57.113-151.913 57.089-153.502-.023-1.589 6.969-30.316-23.254-30.928-30.223-.613-95.909-11.837-95.909-11.837s-6.054 19.107-81.979 26.138c0-.008-9.279-.434-28.223-10.829Z"/><path fill="#FBB000" d="m156.895 369.22 27.587 132.131s25.859 4.883 34.06-13.79-3.48-127.163-3.48-127.163-31.758 3.124-62.539.396l4.372 8.426Z"/><path fill="#19123A" d="M209.682 497.242s26.805 20.27 16.736 20.425c-7.69.117-33.921-.426-45.904-.682-2.907-.062-4.589-3.271-3.039-5.736 2.79-4.442 5.496-11.162 10.844-11.24 9.007-.139 21.363-2.767 21.363-2.767ZM251.966 489.188s-9.178 24.518 1.434 25.417c8.015.683 36.587.458 50.082.303 2.55-.031 3.651-3.271 1.628-4.829-5.845-4.496-15.759-10.775-27.053-12.271"/><path fill="#358DED" d="M518.786 303.929s-75.065-13.147-42.144 103.125c0 0 28.796 102.993 35.92 102.885 7.131-.109 25.843-10.201 27.58-13.798 1.728-3.589.542-120.395-3.171-130.147-3.713-9.751 68.422 5.202 105.521-14.89 33.703-18.239-51.501-46.462-123.706-47.175Z"/><path fill="#69AAFF" d="M624.578 274.124c-10.681-1.318-21.324-2.914-31.874-5.015-34.114-6.806-108.21-15.72-129.263 29.409-24.114 51.679-70.189 134.348-75.057 148.75a6.59 6.59 0 0 0 .961 6.054c4.419 5.907 14.821 19.022 19.658 18.262 4.899-.775 51.981-55.36 58.934-68.096 2.62-4.806 5.008-9.449 4.357-13.317-2.558-15.317-3.512-44.951 21.076-59.26 3.488-2.031 7.743-2.232 11.449-.643 19.983 8.596 94.637 38.943 145.913 35.881 56.407-3.372 52.748-82.312-26.154-92.025Z"/><path fill="#82403A" d="m623.307 106.181 2.907-19.192s-17.301 9.945-24.704 8.24c-7.403-1.706-7.86-10.364-10.023-18.89 0 0-4.495-27.782 6.209-46.316 0 0 15.945 5.318 25.487 3.504 0 0 1.132-1.86.783 18.247 0 0 3.752-8.751 13.65.163 10.193 9.178-6.472 17.65-6.472 17.65s-.085 7.077 15.913 15.921l4.442 19.154-28.192 1.519Z"/><path fill="#19133A" d="M597.696 30.032s-10.79-5.148-7.108-18.93c3.682-13.782 27.138-17.471 32.107 4.977 0 0 37.633-5.992 43.377 19.937 0 0 25.161-14.1 44.516-9.76 19.356 4.341 23.658 21.48 16.061 36.099-7.596 14.62-26.347 18.782-42.555.992s-16.821-15.092-16.821-15.092 4.55 32.153-20.223 37.261c0 0-16.069-8.2-15.914-15.921 0 0 12.247-6.697 8.341-14.364-3.907-7.666-13.031-8.301-15.519-3.449 0 0 .481-17.154-1.008-17.665-1.48-.504-5.573 2.658-25.254-4.085Z"/><path fill="#241F20" d="M602.517 53.813c2.496 0 2.496-3.876 0-3.876-2.495 0-2.495 3.876 0 3.876ZM195.257 55.076c1.992 0 1.999-3.1 0-3.1-2 0-2 3.1 0 3.1ZM589.55 49.472c2.496 0 2.496-3.875 0-3.875s-2.496 3.875 0 3.875ZM595.425 54.37l-3.418 6.465c-1.031 1.946-2.256 3.915-2.814 6.07-.426 1.643-.225 2.875.884 4.177 1.031 1.21 2.418 2.179 3.813 2.923.884.465 1.667-.868.783-1.341-1.193-.636-2.333-1.419-3.255-2.41-.403-.427-.861-.985-.923-1.59-.085-.83.318-1.837.613-2.597.721-1.821 1.759-3.527 2.666-5.255 1-1.884 1.992-3.775 2.992-5.659.457-.883-.876-1.666-1.341-.783Z"/><path fill="#fff" stroke="#002F79" stroke-miterlimit="10" d="m719.156 360.793-182.025 2.694.235 15.835 182.024-2.694-.234-15.835Z"/><path stroke="#002F79" stroke-miterlimit="10" stroke-width="2" d="m111.735 373.614-33.89 188.112"/><path fill="#fff" stroke="#004FE4" stroke-miterlimit="10" d="m334.155 19.303-26.146 148.58 234.83-2.318 27.092-146.766c1.612-8.712-5.171-16.72-14.031-16.564L349.968 5.8c-7.829.124-14.457 5.79-15.813 13.503Z"/><path fill="#fff" stroke="#358EFF" stroke-miterlimit="10" d="m340.961 25.094-24.596 135.968 220.397-2.201 25.479-134.31c1.512-7.976-4.844-15.293-13.162-15.154l-193.274 3.334c-7.341.124-13.565 5.31-14.844 12.363Z"/><path fill="#004FE4" d="m414.522 167.309-38.525.574s1.318 13.836 8.178 14.317c5.829.411 111.752-1.085 143.27-1.543 8.526-.124 15.425-7.053 15.387-15.58v-.38l-128.31 2.612Z"/><path fill="#69AAFF" d="M473.2 165.883s.202 13.828-11.712 15.751L252.3 184.153s-12.248-2.473-14.798-17.007l235.698-1.263Z"/><path fill="#632A27" d="M626.222 86.996s3.503-2.178 6.371-4.286c2.868-2.116-7.813 13.1-7.813 13.1l1.442-8.814Z"/><path fill="#111619" d="M492.455 216.028c.093-1.395 10.798-33.293 12.937-33.843 2.139-.55 2.93 2.163 2.93 2.163l-12.456 34.997-3.411-3.317Z"/><path fill="#632A27" d="M181.157 96.903s-6.17-1.69-9.131-6.45c-.093-.154-.326-.054-.28.117.853 2.969 3.713 10.72 10.798 12.395l-1.387-6.062Z"/><path fill="#241F20" d="M198.388 63.673c.202.666.559 1.263.9 1.868.348.612.744 1.294.798 2.015.085 1.14-1.38 1.62-2.248 1.86-.48.132-.279.884.209.745 1.124-.318 2.605-.907 2.799-2.233.108-.775-.248-1.597-.605-2.271-.38-.72-.868-1.403-1.108-2.194-.14-.473-.884-.27-.745.21Z"/><path stroke="#000" stroke-miterlimit="10" d="M497.555 329.338s12.271-5.798 18.798-12.526M277.6 359.484s8.852-.946 15.371-8.496"/><path fill="#69AAFF" d="m233.014 232.577 28.843 6.193c11.891 2.558 24.138 3.372 36.215 1.876 2.101-.256 3.721-.186 4.403.411 1.907 1.651-3.077 12.79-4 15.394l-13.433 6.829c-5.046 2.21-15.604 7.31-33.06 12.829-36.928 11.682-45.734-47.144-45.687-43.966.046 3.178 9.278 54.578 15.2 60.849 5.923 6.271-10.216 26.122-81.188 29.3-70.972 3.178-56.415-158.176-42.959-180.105 11.178-18.216 35.293-27.122 43.137-29.61a2.627 2.627 0 0 0 1.698-3.302l-.504-1.558a2.054 2.054 0 0 1 2-2.682l39.532.891s28.107 4.511 43.71 50.315c13.984 41.044 16.72 79.902 16.72 79.902"/><path stroke="#000" stroke-miterlimit="10" d="M243.556 235.312s-10.162 6.574-8.992 12.155M188.707 163.644s3.093 37.765 17.588 68.499"/><path fill="#348DFE" d="M439.893 126.971c23.104 0 41.834-18.73 41.834-41.835 0-23.104-18.73-41.834-41.834-41.834-23.105 0-41.835 18.73-41.835 41.834 0 23.105 18.73 41.835 41.835 41.835Z"/><path fill="#fff" d="m451.845 98.67-30.672.457a8.836 8.836 0 0 1-8.961-8.697l-.31-20.937 30.673-.457a8.835 8.835 0 0 1 8.96 8.697l.31 20.937ZM452.481 77.555l.178 12.24 14.426 9.867-.473-31.858-14.131 9.751Z"/><path stroke="#002F79" stroke-miterlimit="10" stroke-width="2" d="m255.416 515.745-170.385 2.612"/><path stroke="#fff" stroke-miterlimit="10" d="m302.025 224.042 35.13.783"/><path stroke="#002F79" stroke-miterlimit="10" stroke-width="2" d="m226.968 368.963 37.16 193.367"/><path fill="#fff" stroke="#002F79" stroke-miterlimit="10" d="m260.576 358.882-182.025 2.694.235 15.835 182.024-2.694-.234-15.835Z"/><path stroke="#919DF2" stroke-miterlimit="10" stroke-width="2" d="m708.728 256.017 71.81 306.244"/><path fill="#241F20" d="M592.433 81.966c2.411.272 4.945-.744 6.519-2.588.271-.318.31-.783 0-1.093-.279-.28-.822-.318-1.093 0-1.356 1.596-3.356 2.364-5.418 2.131-.419-.046-.775.388-.775.775-.008.458.348.721.767.775Z"/><path fill="#FFDA68" d="M588.162 203.075c.349-.52 1.147-.062.868.496-7.224 14.712-30.68 57.453-16.48 62.073 16.868 5.496 75.6 69.949 116.125 65.205 0 0 18.402-116.566 11.154-176.376-2.558-21.107-15.898-39.78-35.633-47.687-9.03-3.612-19.999-5.325-32.796-2.651-40.959 8.558-55.036 34.231-56.788 35.137-1.751.907-42.423 67.058-52.57 68.097-10.147 1.031-38.401 2.341-44.54 5.519-6.139 3.178-3.759 25.432.055 43.393 5.953 28.037 46.322 4.193 66.794-4.628 14.666-6.31 36.122-37.036 43.811-48.578Z"/><path stroke="#231F20" stroke-miterlimit="10" d="M588.867 203.036s13.193-11.689 14.713-23.456M522.042 207.369s9.976 6.682 11.775 15.767"/></g><defs><clipPath id="a"><path fill="#fff" d="M0 0h781v553H0z"/></clipPath></defs></svg>