<svg width="30" height="30" viewBox="0 0 30 30" fill="none" xmlns="http://www.w3.org/2000/svg">
<path fill-rule="evenodd" clip-rule="evenodd" d="M15 29.1666C22.8241 29.1666 29.1667 22.824 29.1667 15C29.1667 7.17595 22.8241 0.833313 15 0.833313C7.17601 0.833313 0.833374 7.17595 0.833374 15C0.833374 22.824 7.17601 29.1666 15 29.1666ZM7.97199 15.7129C8.00896 15.8023 8.06232 15.8839 8.12933 15.9536L13.149 20.9547C13.2152 21.0319 13.2973 21.094 13.3896 21.1367C13.5872 21.2183 13.809 21.2183 14.0066 21.1367C14.099 21.094 14.181 21.0319 14.2473 20.9547L23.1357 12.1125C23.2027 12.0428 23.2561 11.9612 23.2931 11.8719C23.3668 11.6728 23.3668 11.4539 23.2931 11.2548C23.2569 11.1651 23.2034 11.0833 23.1357 11.0142L22.0189 9.92818C21.9536 9.85311 21.873 9.79282 21.7826 9.75133C21.6922 9.70984 21.5939 9.68809 21.4944 9.68754C21.3884 9.68624 21.2833 9.70726 21.1859 9.74924C21.0919 9.79242 21.0071 9.85316 20.936 9.92818L13.7043 17.1599L10.3353 13.7847C10.2621 13.7092 10.1752 13.6484 10.0792 13.6057C9.98204 13.563 9.87676 13.542 9.77066 13.544C9.67275 13.5444 9.57602 13.5654 9.48682 13.6057C9.39416 13.6465 9.3119 13.7077 9.24618 13.7847L8.12933 14.8552C8.06167 14.9244 8.00821 15.0062 7.97199 15.0959C7.89828 15.295 7.89828 15.5139 7.97199 15.7129Z" fill="#24A148"/>
</svg>