<svg width="20" height="20" viewBox="0 0 48 48" fill="none" xmlns="http://www.w3.org/2000/svg">
<path d="M26.8516 33.5H23.1016C22.5742 33.5 22.1641 33.9688 22.1641 34.4375V36.3125C22.1641 36.8398 22.5742 37.25 23.1016 37.25H26.8516C27.3203 37.25 27.7891 36.8398 27.7891 36.3125V34.4375C27.7891 33.9688 27.3203 33.5 26.8516 33.5ZM34.3516 18.5H23.1016C22.5742 18.5 22.1641 18.9688 22.1641 19.4375V21.3125C22.1641 21.8398 22.5742 22.25 23.1016 22.25H34.3516C34.8203 22.25 35.2891 21.8398 35.2891 21.3125V19.4375C35.2891 18.9688 34.8203 18.5 34.3516 18.5ZM30.6016 26H23.1016C22.5742 26 22.1641 26.4688 22.1641 26.9375V28.8125C22.1641 29.3398 22.5742 29.75 23.1016 29.75H30.6016C31.0703 29.75 31.5391 29.3398 31.5391 28.8125V26.9375C31.5391 26.4688 31.0703 26 30.6016 26ZM38.1016 11H23.1016C22.5742 11 22.1641 11.4688 22.1641 11.9375V13.8125C22.1641 14.3398 22.5742 14.75 23.1016 14.75H38.1016C38.5703 14.75 39.0391 14.3398 39.0391 13.8125V11.9375C39.0391 11.4688 38.5703 11 38.1016 11Z" fill="#737787"/>
<path d="M16.5394 18.5H19.3519C20.1722 18.5 20.5824 17.4453 19.9964 16.8594L15.3089 11.2344C15.1332 11.1172 14.8402 11 14.6644 11C14.43 11 14.1371 11.1172 13.9613 11.2344L9.27379 16.8594C8.68785 17.4453 9.098 18.5 9.97691 18.5H12.7894V36.3125C12.7894 36.7812 13.1996 37.25 13.7269 37.25H15.6019C16.0707 37.25 16.5394 36.7812 16.5394 36.3125V18.5Z" fill="#737787"/>
</svg>
