<svg width="20" height="20" viewBox="0 0 48 48" fill="none" xmlns="http://www.w3.org/2000/svg">
<path d="M26.8519 33.5H23.1019C22.5746 33.5 22.1644 33.9688 22.1644 34.4375V36.3125C22.1644 36.8398 22.5746 37.25 23.1019 37.25H26.8519C27.3207 37.25 27.7894 36.8398 27.7894 36.3125V34.4375C27.7894 33.9688 27.3207 33.5 26.8519 33.5ZM19.3519 29.75H16.5394V11.9375C16.5394 11.4688 16.0707 11 15.6019 11H13.7269C13.1996 11 12.7894 11.4688 12.7894 11.9375V29.75H9.97691C9.098 29.75 8.68785 30.8047 9.27379 31.3906L13.9613 37.0156C14.1371 37.1328 14.43 37.25 14.6644 37.25C14.8402 37.25 15.1332 37.1328 15.3089 37.0156L19.9964 31.3906C20.5824 30.8047 20.1722 29.75 19.3519 29.75ZM34.3519 18.5H23.1019C22.5746 18.5 22.1644 18.9688 22.1644 19.4375V21.3125C22.1644 21.8398 22.5746 22.25 23.1019 22.25H34.3519C34.8207 22.25 35.2894 21.8398 35.2894 21.3125V19.4375C35.2894 18.9688 34.8207 18.5 34.3519 18.5ZM30.6019 26H23.1019C22.5746 26 22.1644 26.4688 22.1644 26.9375V28.8125C22.1644 29.3398 22.5746 29.75 23.1019 29.75H30.6019C31.0707 29.75 31.5394 29.3398 31.5394 28.8125V26.9375C31.5394 26.4688 31.0707 26 30.6019 26ZM38.1019 11H23.1019C22.5746 11 22.1644 11.4688 22.1644 11.9375V13.8125C22.1644 14.3398 22.5746 14.75 23.1019 14.75H38.1019C38.5707 14.75 39.0394 14.3398 39.0394 13.8125V11.9375C39.0394 11.4688 38.5707 11 38.1019 11Z" fill="#737787"/>
</svg>
