<svg xmlns="http://www.w3.org/2000/svg" width="102" height="61" fill="none"><path fill="#F3F7FF" fill-rule="evenodd" d="M97.704 9.25a4.078 4.078 0 1 1 0 8.155H74.403a4.078 4.078 0 1 1 0 8.155h12.816a4.078 4.078 0 0 1 0 8.156h-5.927c-2.84 0-5.142 1.825-5.142 4.077 0 1.502 1.165 2.861 3.496 4.078a4.078 4.078 0 0 1 0 8.155h-48.35a4.078 4.078 0 0 1 0-8.155H8.578a4.078 4.078 0 1 1 0-8.155h23.3a4.078 4.078 0 0 0 0-8.156H17.316a4.078 4.078 0 1 1 0-8.155h23.302a4.078 4.078 0 0 1 0-8.155h57.087Zm0 16.31a4.078 4.078 0 1 1 0 8.157 4.078 4.078 0 0 1 0-8.157Z" clip-rule="evenodd"/><path fill="#fff" fill-rule="evenodd" d="m62.14 9.155 5.418 39.52.486 3.965a2.33 2.33 0 0 1-2.028 2.597l-34.113 4.188a2.33 2.33 0 0 1-2.597-2.028l-5.252-42.774a1.165 1.165 0 0 1 1.027-1.3l2.83-.317 34.228-3.85ZM30.2 12.75l2.671-.3Z" clip-rule="evenodd"/><path stroke="#75A4FE" stroke-linecap="round" stroke-width="1.5" d="m30.2 12.75 2.671-.3M62.14 9.155l5.419 39.52.486 3.965a2.33 2.33 0 0 1-2.028 2.597l-34.113 4.188a2.33 2.33 0 0 1-2.597-2.028l-5.252-42.774a1.165 1.165 0 0 1 1.027-1.3l2.83-.317 34.228-3.85Z"/><path fill="#E8F0FE" fill-rule="evenodd" d="m60.664 11.642 4.905 35.816.44 3.593c.143 1.158-.669 2.21-1.813 2.35l-30.548 3.751c-1.144.14-2.187-.684-2.329-1.841l-4.748-38.666a1.165 1.165 0 0 1 1.015-1.299l3.779-.464" clip-rule="evenodd"/><path fill="#fff" fill-rule="evenodd" stroke="#75A4FE" stroke-width="1.5" d="M63.628 1.728H37.09c-.442 0-.842.18-1.132.47-.29.29-.47.69-.47 1.132v44.272c0 .442.18.843.47 1.133.29.29.69.469 1.133.469h34.368c.443 0 .843-.18 1.133-.47.29-.29.47-.69.47-1.132V11.156c0-.425-.17-.833-.47-1.133L64.76 2.197c-.3-.3-.708-.469-1.133-.469Z" clip-rule="evenodd"/><path stroke="#75A4FE" stroke-linecap="round" stroke-linejoin="round" stroke-width="1.5" d="M63.886 2.4v6.755c0 .965.783 1.748 1.748 1.748h4.621"/><path stroke="#A4C3FE" stroke-linecap="round" stroke-linejoin="round" stroke-width="2" d="M41.75 40.612h15.146m-15.145-29.71h15.145-15.145Zm0 6.991h25.048H41.75Zm0 7.573h25.048H41.75Zm0 7.573h25.048H41.75Z"/><path fill="#F3F7FF" stroke="#75A4FE" stroke-width="1.5" d="M68.115 52.18c8.02 0 14.522-6.501 14.522-14.522 0-8.02-6.502-14.522-14.522-14.522s-14.523 6.502-14.523 14.522 6.502 14.523 14.523 14.523Z"/><path fill="#fff" fill-rule="evenodd" d="M65.788 48.927c.762.14 1.538.214 2.327.219 6.344 0 11.488-5.143 11.488-11.488S74.459 26.17 68.115 26.17c-1.63 0-3.18.34-4.585.952a11.533 11.533 0 0 0-5.648 5.309 11.44 11.44 0 0 0-1.255 5.227 11.445 11.445 0 0 0 2.897 7.628" clip-rule="evenodd"/><path stroke="#75A4FE" stroke-linecap="round" stroke-width="1.5" d="M65.788 48.927c.762.14 1.538.214 2.327.219 6.344 0 11.488-5.143 11.488-11.488S74.459 26.17 68.115 26.17c-1.63 0-3.18.34-4.585.952a11.533 11.533 0 0 0-5.648 5.309 11.44 11.44 0 0 0-1.255 5.227 11.445 11.445 0 0 0 2.897 7.628M60.874 46.577c.931.757 1.983 1.371 3.123 1.809"/><path stroke="#A4C3FE" stroke-linecap="round" stroke-width="1.5" d="M68.332 29.638c-.747 0-1.47.1-2.159.286a8.24 8.24 0 0 0-6.078 7.951"/><path stroke="#75A4FE" stroke-width="2" d="m79.036 47.146 2.601 2.601"/><path fill="#E8F0FE" fill-rule="evenodd" stroke="#75A4FE" stroke-width="1.5" d="M84.056 49.459a1.909 1.909 0 0 0-1.354-.561c-.49 0-.98.187-1.354.56-.373.374-.56.864-.56 1.355 0 .49.187.98.56 1.353l4.806 4.806c.374.374.864.56 1.354.56.49 0 .98-.186 1.354-.56.374-.374.56-.864.56-1.354 0-.49-.186-.98-.56-1.354l-4.806-4.806Z" clip-rule="evenodd"/></svg>