<svg xmlns="http://www.w3.org/2000/svg" fill="none" viewBox="0 0 822 285"><mask id="b" width="822" height="285" x="0" y="0" maskUnits="userSpaceOnUse" style="mask-type:alpha"><rect width="822" height="285" fill="#F6F8FD" rx="10"/></mask><g clip-path="url(#a)" mask="url(#b)"><path fill="#FDCC40" d="M540.001 171.458c-7.562-7.799-16.351-14.535-21.814-24.133-.429-.756-.587-1.537-.834-2.325h-67.82c-4.161 0-7.533 3.368-7.533 7.516v130.968c0 4.152 3.376 7.516 7.533 7.516h99.934c4.162 0 7.533-3.368 7.533-7.516v-95.336c-5.872-5.341-11.468-10.985-16.999-16.69Z"/><path fill="#EC8D03" d="M497.5 249c12.979 0 23.5-10.521 23.5-23.5S510.479 202 497.5 202 474 212.521 474 225.5s10.521 23.5 23.5 23.5Z" opacity=".3"/><path fill="#EC8D03" d="M497.273 212a2.624 2.624 0 0 0-2.624 2.624v14.719l-4.162-3.745a2.77 2.77 0 1 0-3.667 4.155l9.666 8.369a1.474 1.474 0 0 0 1.983-.048l9.478-9.054a2.624 2.624 0 1 0-3.649-3.772l-4.496 4.407.094-15.015a2.624 2.624 0 0 0-2.623-2.64Z"/><path fill="#7B443D" d="M752.391 113.326s-2.333.439-6.42-1.898c-4.087-2.332-9.047-3.939-10.797-3.792-1.75.148-1.442 1.877 3.045 5.108 4.486 3.231-.547 3.883-.986 4.486-.439.604-1.26 2.242 3.831 1.968 5.085-.274 6.345-.986 7.383-.656 1.038.33 2.901 1.75 2.901 1.75l1.425-.056-.382-6.91Z"/><path fill="#0A4EDC" d="M815.853 78.163s32.097 33.408 40.705 84.176l-30.637.148s.582-15.028-.877-20.131l-40.848.148 2.918-8.752s-19.548 11.818-38.224 7.149l3.501-27.571s22.906 3.21 34.428-8.022c0 0 11.232-11.818 12.839-21.155l16.195-5.99Z"/><path fill="#022E74" d="m799.658 84.148-12.548 49.604s-20.426 12.547-38.224 7.149l3.5-27.571c.005-.004 35.602 5.247 47.272-29.182Z"/><path fill="#FEDC7A" d="M825.982 143.511c.412 5.733 1.329 31.771 1.112 54.221-.005.408.178.794.499 1.046l42.277 33.795a1.07 1.07 0 0 1 .165 1.503l-6.072 7.531a.983.983 0 0 1-1.29.217c-6.176-3.879-48.883-30.833-51.05-35.571-2.141-4.682-18.376-54.346-21.069-62.594a.889.889 0 0 1 .843-1.164l32.491-.135c.652-.004 2.046.5 2.094 1.151Z"/><path fill="#F1B400" d="m803.032 182.643-29.681 82.452a1.82 1.82 0 0 1-1.82 1.198l-8.995-.534a1.642 1.642 0 0 1-1.507-1.98l25.851-120.064a1.413 1.413 0 0 1 1.311-1.116l1.977-.096 12.877 38.633a2.217 2.217 0 0 1-.013 1.507Z"/><path fill="#181338" d="m773.49 264.378.165 11.484c.004.343-.274.747-.617.734l-4.56-.061c-.326-.013-.465-.456-.474-.778l-.013-.486c-.004-.1-.091-.239-.191-.226-1.081.178-6.011.96-7.909.921-1.268-.026-14.78.443-19.583.243a1.615 1.615 0 0 1-1.542-1.759 1.62 1.62 0 0 1 1.32-1.451c3.627-.664 13.777-3.201 20.83-8.495l12.574-.126Z"/><path fill="#7B443D" d="m803.158 82.871-1.168-6.892s-4.886 5.58-7.696 5.871c-2.81.291-4.013-2.697-5.798-5.433 0 0-4.926-9.23-3.393-17.034 0 0 6.246-.048 9.382-1.837 0 0 .174-.79 2.471 6.324 0 0 .265-3.531 4.817-1.586 4.69 1.998-.152 6.984-.152 6.984s.821 2.498 7.513 3.683L813 79.153l-9.842 3.718Z"/><path fill="#181338" d="M785.108 59.383s-4.413-.512-4.778-5.798c-.365-5.286 7.44-9.412 11.892-2.115 0 0 12.508-6.637 17.651 1.785 0 0 7.149-7.987 14.48-8.79 7.331-.804 10.906 4.703 9.994 10.757-.912 6.055-7.002 9.777-14.845 5.473-7.844-4.304-7.731-3.284-7.731-3.284s5.472 10.758-2.628 15.536c0 0-6.636-.947-7.514-3.683 0 0 3.501-3.83 1.203-6.054-2.297-2.224-5.581-1.351-5.872.655 0 0-1.898-6.089-2.48-6.089-.582 0-1.641 1.607-9.372 1.607Z"/><path fill="#231F20" d="M788.135 66.636c.699 0 .699-1.085 0-1.085s-.699 1.085 0 1.085Zm-3.783.422c.699 0 .699-1.086 0-1.086s-.704 1.086 0 1.086Zm2.163 1.402c-.104.652-.204 1.3-.308 1.95-.096.613-.248 1.252-.183 1.877.048.478.248.79.665 1.025.365.204.786.334 1.198.4.409.065.587-.56.174-.63a3.257 3.257 0 0 1-.964-.291c-.122-.061-.265-.135-.347-.248-.113-.156-.096-.425-.092-.608.009-.53.126-1.06.209-1.585.091-.573.182-1.147.269-1.72.026-.174-.043-.347-.226-.4-.147-.039-.369.057-.395.23Zm4.986 7.067a4.481 4.481 0 0 1-2.497.947.333.333 0 0 0-.326.325c0 .17.148.335.326.326a5.225 5.225 0 0 0 2.957-1.138c.139-.108.113-.347 0-.46-.139-.135-.325-.109-.46 0Z"/><path fill="#181338" d="M825.4 141.808c-.044-2.94-.217-5.88-.435-8.812-.447-6.063-1.142-12.135-2.384-18.085-.686-3.292-1.546-6.571-2.823-9.69-.13-.317-.656-.178-.525.144 2.332 5.694 3.409 11.909 4.212 17.981.674 5.116 1.095 10.267 1.316 15.422.044 1.012.083 2.024.1 3.04 0 .348.543.348.539 0Z"/><path fill="#F19F00" d="M603.84 74.098s29.147 23.84 34.876 36.904c5.403 12.322 31.988 47.715 42.307 53.791a1.675 1.675 0 0 1 .53 2.41l-4.878 6.975a2.332 2.332 0 0 1-1.858 1.004c-4.865.126-23.454-.183-34.759-11.592 0 0 2.584-2.932-5.038-19.649-7.622-16.717-32.531-55.09-31.18-69.843Z"/><path fill="#7B443D" d="M586.567 72.96c.109.33-.221-9.703-.221-9.703l3.205-6.302s-5.746-2.319-1.659-8.734c0 0 1.107-1.659 3.205-1.546l10.945 27.193-15.475-.908Z"/><path fill="#B7E4FF" d="M603.84 74.098c-.439 1.316 30.307 61.474 30.307 61.474l12.625 27.353-7.275.526s.965 1.754-.79 3.505l-21.13 17.842-10.354-73.991-10.949-37.999"/><path fill="#F1B400" d="M574.88 96.995c-12.448-1.229-16.483-30.51-1.577-27.001 14.906 3.505 22.971 2.818 22.971 2.818 27.966 87.147 21.304 111.99 21.304 111.99l-43.419 2.723s-17.152-10.185-19.658-31.084c-1.893-15.792 2.068-31.732 10.837-45l9.542-14.446Z"/><path fill="#7B443D" d="M616.896 152.627c.269.096 7.531-1.919 11.257-2.692 4.534-.939 11.045-3.883 19.753-3.948 8.708-.066-6.163 5.646-6.48 8.912-.317 3.266 5.107 2.319 4.013 4.178-1.094 1.859-13.551-.408-15.518-1.09-1.968-.682-6.281.964-6.281.964l-6.744-6.324Z"/><path fill="#F1B400" d="M573.216 109.43a5.434 5.434 0 0 0-4.778 4.782c-1.068 9.351-4.708 24.135-5.142 40.257-.152 5.585 1.633 11.11 5.225 15.388 7.145 8.513 18.693 15.266 55.398-8.739a1.32 1.32 0 0 0 .408-1.785l-4.226-7.04c-.53-.886-1.668-1.207-2.567-.699-6.08 3.422-16.565 2.523-26.363.23-7.466-1.746-6.311-23.957-7.145-34.116-.421-5.16-5.029-8.947-10.172-8.347l-.638.069Z"/><path fill="#7B443D" d="M598.524 65.941s2.193 4.061 8.382 3.397c3.974-.426 6.354-.26 8.074-.847 1.516-.517 2.359-2.133 1.946-3.679-.3-1.112-.625-2.371-.625-2.55 0-.33 1.324-3.313.664-6.74-.664-3.427-3.427-14.48-10.61-23.544 0 0-2.763 2.319-6.524 2.983-3.761.665-6.189 8.622-6.189 8.622s6.854 12.156 5.525 12.712c-1.325.552-3.536 1.66-3.536 1.66l2.893 7.986Z"/><path fill="#181338" d="M599.41 56.187s1.207-.726-5.768-12.6c0 0 1.69-5.312 4.56-7.649 1.985-1.615 2.033-.634 1.812.027-.053.156.112.3.256.221 1.172-.625 4.382-2.42 6.08-4.209 2.102-2.21.552-5.967-.221-6.302-.773-.334-12.491-1.437-22.437 3.097-9.946 4.535-9.508 12.27-9.286 17.464.221 5.195 1.768 13.043 11.939 17.021l3.206-6.302s-5.599-2.224-1.659-8.734c0 0 1.007-1.342 3.205-1.546l4.53 11.275 3.783-1.764Z"/><path fill="#231F20" d="M609.008 45.263v-.021c-.004.047-.013.095-.017.143 0-.013.004-.026.009-.035-.018.044-.035.087-.057.13a.073.073 0 0 1 .017-.03c-.03.035-.056.074-.086.109l.026-.026c-.035.03-.074.056-.109.087a.341.341 0 0 1 .044-.026 1.719 1.719 0 0 0-.131.056.332.332 0 0 1 .07-.017c-.048.004-.096.013-.144.017a.209.209 0 0 1 .074 0c-.048-.004-.095-.013-.143-.017.022.004.048.008.069.017a2.038 2.038 0 0 1-.13-.056c.017.008.031.012.044.026-.035-.03-.074-.057-.109-.087l.026.026c-.03-.035-.056-.074-.087-.109.009.009.013.022.018.03-.018-.043-.035-.086-.057-.13.004.013.009.022.009.035-.005-.048-.013-.096-.018-.143v.021a.39.39 0 0 0 .048.209.42.42 0 0 0 .113.174.42.42 0 0 0 .174.112.43.43 0 0 0 .208.048c.048-.004.096-.013.144-.017a.558.558 0 0 0 .239-.139c.03-.035.056-.074.086-.109a.548.548 0 0 0 .074-.273v-.018c0-.026-.008-.06-.008-.078-.005-.017-.005-.052-.009-.078 0-.009-.005-.017-.009-.03a.697.697 0 0 0-.508-.473.797.797 0 0 0-.204-.027c-.07-.004-.139.013-.204.022a.082.082 0 0 0-.031.009c-.004 0-.008.004-.013.004-.047.017-.095.039-.143.06a.663.663 0 0 0-.156.114c-.026.021-.044.052-.066.078-.021.026-.043.052-.056.082a.704.704 0 0 0-.087.335.389.389 0 0 0 .048.208.42.42 0 0 0 .113.174.413.413 0 0 0 .174.113.43.43 0 0 0 .208.048c.048-.005.096-.013.143-.018a.547.547 0 0 0 .239-.139c.031-.034.057-.074.087-.108a.53.53 0 0 0 .078-.283Zm5.195-1.229h-.109a.387.387 0 0 0-.208.048.39.39 0 0 0-.174.113.42.42 0 0 0-.113.174.43.43 0 0 0-.048.208l.018.144a.542.542 0 0 0 .139.238c.034.03.073.057.108.087a.551.551 0 0 0 .274.074h.108a.39.39 0 0 0 .209-.048.395.395 0 0 0 .174-.113.42.42 0 0 0 .113-.173.44.44 0 0 0 .047-.209c-.004-.047-.013-.095-.017-.143a.553.553 0 0 0-.139-.239c-.035-.03-.074-.056-.109-.087a.562.562 0 0 0-.273-.074Zm-.154 4.451c.551.921 1.116 1.837 1.65 2.767.369.643.852 1.79.026 2.32-.351.225-.026.79.33.564.943-.604.891-1.798.474-2.706-.252-.547-.591-1.06-.904-1.572-.338-.565-.677-1.134-1.016-1.698-.213-.365-.777-.04-.56.325Zm-.194 10.815a5.839 5.839 0 0 0 3.488-.216c.165-.066.278-.218.226-.4-.044-.156-.235-.29-.4-.226a5.213 5.213 0 0 1-3.14.217c-.408-.1-.582.526-.174.626Z"/><path fill="#AB573A" d="M606.298 55.192a1.273 1.273 0 1 0 0-2.546 1.273 1.273 0 0 0 0 2.546Z"/><path fill="#000" d="M654.291 107.28c.074-.317-.174-.634-.5-.608-1.038.078-3.301 1.65-5.941 12.083a16639.217 16639.217 0 0 0-10.663 42.481.5.5 0 0 1-.239.308l-25.412 14.198c-2.059 1.151-3.67 3.049-4.313 5.346-.408 1.451-.347 2.715 1.177 2.58a.475.475 0 0 0 .204-.065l32.944-18.884c.421-.239.278-.882-.204-.917a.493.493 0 0 1-.439-.603l13.386-55.919Z"/><path fill="#779ED8" d="m714.457 165.21-31.827 17.095-74.121 1.355 32.122-19.849 73.826 1.399Z"/><path fill="#0A4EDC" d="M640.705 162.917 654 107.684a1.024 1.024 0 0 1 1.016-.786l73.739 1.29c.669.013 1.151.651.973 1.298l-14.997 55.289a.913.913 0 0 1-.904.678l-72.145-1.268a1.025 1.025 0 0 1-.977-1.268Z"/><path fill="#F1B400" d="M689.384 58h37.232c.764 0 1.384.55 1.384 1.227v31.546c0 .677-.62 1.227-1.384 1.227h-37.232c-.764 0-1.384-.55-1.384-1.227V59.227c-.002-.677.618-1.227 1.384-1.227Z"/><path fill="#F1B400" d="M688 95.662V90l8.5 2-6.957 4.501a1 1 0 0 1-1.543-.84Z"/><path fill="#F3F7F8" d="M696.827 68.963a1.481 1.481 0 1 0 0-2.962 1.481 1.481 0 0 0 0 2.962Zm0 8a1.481 1.481 0 1 0 0-2.962 1.481 1.481 0 0 0 0 2.962Zm4.791-8.816h17.425c.738 0 .738-1.147 0-1.147h-17.425c-.739 0-.739 1.147 0 1.147Zm0 8h17.425c.738 0 .738-1.147 0-1.147h-17.425c-.739 0-.739 1.147 0 1.147Zm-4.791 7.816a1.481 1.481 0 1 0 0-2.962 1.481 1.481 0 0 0 0 2.962Zm4.791-.816h17.425c.738 0 .738-1.147 0-1.147h-17.425c-.739 0-.739 1.147 0 1.147Z"/><path fill="#1AADFF" d="m608.73 173.167 42.803-11.171a77.11 77.11 0 0 0 6.975-2.146c4.026-1.468 12.556-3.7 16.361 1.946 4.59 6.81 31.392 55.311 36.448 64.471.495.899-.165 2.215-.226 3.24-.182 2.992-6.398 4.986-7.939 4.986-2.098 0-40.001-51.88-40.001-51.88s-35.871 32.196-65.613 30.793c-22.307-1.051-23.948-17.65-23.375-25.885.187-2.697 2.076-4.977 4.673-5.729l29.894-8.625Z"/><path fill="#022E74" d="M604.41 213.106h-9.265c-45.357-24.988-47.145 0-47.145 0V285h86v-71.894c-17.289-5.645-25.7-2.89-29.59 0Z"/><path stroke="#231F20" stroke-miterlimit="10" d="M663.146 182.613s3.814-4.821 2.363-11.583M574.88 96.996s10.927 3.027 16.721-1.807m-6.28 25.603s5.311 27.049 1.45 35.744m-16.426.487s1.451 19.323 21.738 11.592"/><path stroke="#181338" stroke-miterlimit="10" d="M604.804 222.718s-9.82-13.846-31.075-19.001"/><path stroke="#000" stroke-miterlimit="10" d="M827.046 186.826s1.698 16.56-5.946 20.808"/><path fill="#181238" d="M703.677 232.595s5.62-2.254 5.577-10.576c0 0 3.609.161 6.906.756 2.957.534 13.98.091 18.463-.126a9.787 9.787 0 0 0 3.574-.856c1.568-.712 3.692-2.037 4.465-1.976 1.524.117 2.502 2.45 3.283 3.861.239.43.135.943-.23 1.138l-36.713 19.579c-.83.443-1.924.044-2.497-.916-1.56-2.606-5.199-7.953-4.639-10.398a.502.502 0 0 1 .465-.399l1.346-.087Z"/><path fill="#0092D3" d="m618.003 210.084 38.85-.339c.604-.004 1.208-.069 1.811-.104.756-.039 2.298.482 2.558 5.338.322 5.924 5.329 51.996 6.176 59.775a.971.971 0 0 0 1.212.834l10.029-2.58a1.491 1.491 0 0 0 1.12-1.455l-.69-76.518s-.17-5.946-15.245-12.148a1.411 1.411 0 0 0-1.29.113c-5.329 3.366-43.719 27.575-44.531 27.084Z"/><path fill="#181238" d="M668.254 271.896s7.748.487 11.475-6.953c0 0 3.144 1.776 5.815 3.804 2.398 1.82 12.422 6.415 16.518 8.248a9.757 9.757 0 0 0 3.574.856c1.72.073 4.213-.144 4.873.26 1.307.799 1.121 4.174 1.181 5.785.018.491-.308.899-.72.908l-41.6-.026c-.938.017-1.733-.834-1.811-1.946-.208-3.031-2.753-9.394-1.142-11.322a.5.5 0 0 1 .595-.144l1.242.53Z"/><path fill="#EC8D03" d="m517 187.124.353-42.124L557 188l-39.39-.254a.622.622 0 0 1-.61-.622Z"/></g><defs><clipPath id="a"><path fill="#fff" d="M0 0h572v287.954H0z" transform="translate(433 15)"/></clipPath></defs></svg>