<svg fill="none" xmlns="http://www.w3.org/2000/svg" viewBox=""><path d="m17.275 7.17-2.793 2.833a.81.81 0 0 1-.586.243.81.81 0 0 1-.587-.243L10.516 7.17a.844.844 0 0 1 0-1.153.844.844 0 0 1 1.154 0l1.558 1.578c-.203-2.934-2.61-5.26-5.545-5.26C4.608 2.334 2.12 4.883 2.12 8s2.489 5.666 5.564 5.666a5.398 5.398 0 0 0 3.137-.992c.364-.263.87-.162 1.133.203.263.364.162.87-.202 1.133a7.12 7.12 0 0 1-4.068 1.274C3.717 15.284.5 12.027.5 8 .5 3.973 3.717.715 7.683.715c3.724 0 6.8 2.894 7.143 6.597l1.275-1.295a.806.806 0 0 1 1.154 0c.323.324.323.83.02 1.153Z" fill="#1973AA"/></svg>