<svg xmlns="http://www.w3.org/2000/svg" width="228" height="295" fill="none"><path fill="#fff" d="M222 0a6 6 0 0 1 6 6v283a6 6 0 0 1-6 6H6a6 6 0 0 1-6-6V6a6 6 0 0 1 6-6h216Z"/><path fill="#C0C3CB" d="M113.996 109.926c5.693.048 10.77 1.84 15.208 5.424.223.181.332.175.525-.024 1.519-1.539 3.051-3.059 4.577-4.592.44-.44.916-.778 1.562-.815a2.087 2.087 0 0 1 2.026 1.195 2.051 2.051 0 0 1-.356 2.299c-.573.616-1.188 1.201-1.785 1.798-3.473 3.47-6.953 6.945-10.426 10.421-3.468 3.47-6.941 6.933-10.408 10.403-4.686 4.682-9.365 9.37-14.051 14.053-2.43 2.431-4.86 4.863-7.296 7.289-.73.73-1.659.899-2.479.482-1.308-.663-1.58-2.323-.542-3.379 1.085-1.104 2.189-2.19 3.28-3.282.519-.519 1.031-1.044 1.556-1.557.163-.157.145-.253.012-.416-2.503-3.059-4.167-6.535-4.963-10.415a23.595 23.595 0 0 1-.223-8.333c.766-5.092 2.943-9.503 6.519-13.202 3.666-3.789 8.116-6.119 13.302-7.024a21.19 21.19 0 0 1 3.962-.325Zm-19.863 24.021c0 1.991.283 3.928.862 5.823a19.852 19.852 0 0 0 3.395 6.504c.139.175.217.175.362.018.295-.313.609-.615.916-.917 5.44-5.436 10.873-10.873 16.312-16.31 3.437-3.439 6.88-6.878 10.324-10.312.163-.163.193-.247-.012-.404a22.003 22.003 0 0 0-1.96-1.352c-4.227-2.522-8.774-3.391-13.634-2.6-3.884.633-7.285 2.293-10.155 4.972-4.222 3.928-6.308 8.827-6.41 14.578ZM138.068 133.639c-.012 4.592-1.019 8.58-3.166 12.237-3.63 6.197-8.955 10.161-15.992 11.645-6.579 1.382-12.699.109-18.314-3.59-.434-.283-.416-.199-.048-.573.82-.827 1.653-1.647 2.473-2.474.156-.157.259-.175.452-.054a19.279 19.279 0 0 0 7.713 2.836c3.768.525 7.417.054 10.896-1.509 4.378-1.961 7.652-5.117 9.781-9.425 1.562-3.156 2.201-6.504 1.972-10.022-.211-3.361-1.224-6.457-3.015-9.299-.085-.138-.109-.223.024-.356a230.56 230.56 0 0 0 2.708-2.709c.144-.145.211-.115.313.036 1.924 2.83 3.214 5.92 3.817 9.293.097.555.181 1.11.241 1.671.103.881.157 1.762.145 2.293Z"/><path fill="#212327" d="M98.043 189h1.625v-7.83h.044l5.442 7.83h1.509v-10.569h-1.626v7.815h-.044l-5.434-7.815h-1.516V189Zm13.696.154c2.204 0 3.655-1.524 3.655-4.007v-.014c0-2.468-1.465-3.985-3.663-3.985-2.189 0-3.647 1.524-3.647 3.985v.014c0 2.476 1.443 4.007 3.655 4.007Zm.007-1.326c-1.238 0-2.043-.974-2.043-2.681v-.014c0-1.685.813-2.659 2.028-2.659 1.238 0 2.044.974 2.044 2.659v.014c0 1.7-.791 2.681-2.029 2.681Zm4.871 1.172h1.582v-4.49c0-1.201.718-2.007 1.831-2.007 1.098 0 1.64.652 1.64 1.809V189h1.59v-4.988c0-1.772-.974-2.864-2.666-2.864-1.165 0-1.956.528-2.359 1.311h-.036v-1.164h-1.582V189Zm11.462.154c1.868 0 3.054-1.113 3.303-2.337l.015-.08h-1.501l-.022.058c-.198.579-.821 1.062-1.758 1.062-1.26 0-2.058-.849-2.088-2.307h5.457v-.534c0-2.315-1.326-3.868-3.486-3.868-2.161 0-3.553 1.612-3.553 4.021v.008c0 2.431 1.37 3.977 3.633 3.977Zm-.073-6.709c1.033 0 1.78.652 1.911 1.985h-3.867c.139-1.289.93-1.985 1.956-1.985Z"/></svg>