<svg xmlns="http://www.w3.org/2000/svg" width="102" height="80" fill="none"><path fill="#A6A6A6" d="M72.857 43.055c-1.786 1.27-2.538 2.68-3.479 3.901-2.867 3.902-5.593 7.944-9.118 11.328-1.88 1.786-3.901 3.385-6.346 4.372-2.867 1.175-5.687 1.175-8.32-.517-1.221-.8-1.785-.423-2.726.517-4.794 4.888-10.434 8.178-17.297 9.165-4.136.611-7.943-.47-11.375-2.726-1.175-.752-1.739-.705-2.585.423-2.256 3.008-4.7 5.829-7.097 8.79-.988 1.222-2.069 2.491-3.667 1.222-1.692-1.316-.61-2.538.423-3.76 2.492-3.009 4.936-6.11 7.427-9.12.658-.751.799-1.268.047-2.161C1.599 55.98-.516 46.016.565 35.253c1.128-11.375 5.03-21.575 13.631-29.566C16.5 3.525 19.085 1.833 22.093.8c8.131-2.773 15.652 2.303 16.075 10.858.423 9.166-2.303 17.626-6.016 25.805-4.184 9.212-9.354 17.861-15.7 25.805-1.128 1.363-.893 1.927.564 2.773 4.184 2.35 8.414 2.162 12.692.517 3.995-1.504 7.473-3.901 10.528-6.91.8-.799.987-1.41.423-2.585-4.7-9.353-2.397-23.878 4.983-31.351 2.115-2.162 4.606-3.713 7.661-4.324 4.325-.893 7.662 1.598 8.038 5.969.423 5.405-1.41 10.34-3.62 15.135-2.35 5.218-5.546 9.965-9.26 14.383-.422.517-1.315.94-.892 1.74.329.563 1.175.657 1.927.704 2.444.188 4.418-.94 6.204-2.35 3.15-2.538 5.5-5.781 7.85-8.978 1.974-2.632 3.666-5.499 6.017-7.802 1.269-1.222 2.585-2.491 4.512-1.833 2.068.705 2.538 2.491 2.726 4.512.329 3.666-.282 7.333-.141 11.046 1.175.094 1.74-.752 2.35-1.41 1.927-2.162 3.76-4.419 5.688-6.58 3.478-3.855 7.52-6.863 12.879-7.568.846-.094 1.739-.235 2.538-.094 1.034.188 1.598.94 1.598 2.02 0 1.082-.611 2.022-1.598 2.022-7.38.047-11.328 5.218-15.511 10.153a98.924 98.924 0 0 1-3.62 3.995c-1.034 1.081-2.256 1.927-3.666 2.444-3.008 1.034-4.794-.047-4.888-3.243-.094-2.256.094-4.56.188-6.815.047-1.74.14-3.479.235-5.782ZM4.326 40.658c.14 1.457.188 2.961.423 4.418.846 5.5 2.538 10.623 6.016 15.041 1.034 1.317 1.692 1.505 2.914-.094a134.446 134.446 0 0 0 12.88-20.681c3.9-7.803 7.05-15.887 7.567-24.724.188-3.525-.047-7.098-3.337-9.26-3.338-2.162-6.722-1.175-9.965.752a28.08 28.08 0 0 0-7.239 6.299c-6.58 8.272-8.883 17.908-9.26 28.249Zm40.14 14.43c5.876-7.145 10.53-14.618 12.456-23.596.236-1.128.518-2.303.33-3.478-.377-2.444-1.317-3.102-3.714-2.444-2.679.752-4.7 2.444-6.298 4.653-3.62 4.936-4.936 10.529-4.842 16.545 0 2.82.564 5.547 2.069 8.32Z"/></svg>