<svg xmlns="http://www.w3.org/2000/svg" width="48" height="48" fill="none"><path fill="#161616" d="M37.236 12.442a3.061 3.061 0 0 1 2.094 1.172 2.97 2.97 0 0 1 .64 2.298l-1.767 15.789c-.044.4-.166.787-.358 1.14a3.36 3.36 0 0 1-.769.954c-.214.15-.444.276-.685.377a5.29 5.29 0 0 1-.78.25v.64a2.74 2.74 0 0 1-1.006 2.158 3.374 3.374 0 0 1-2.273.858H10.877a2.822 2.822 0 0 1-2.062-.922 2.863 2.863 0 0 1-.813-2.113v-15.91c-.007-.833.3-1.637.858-2.254a2.766 2.766 0 0 1 2.145-.967h1.184l.41-3.201c.04-.396.162-.78.359-1.127.195-.348.456-.655.768-.903.308-.266.67-.46 1.063-.57.395-.115.81-.141 1.216-.076l21.231 2.407Zm-3.2 6.69a1.653 1.653 0 0 0-.532-1.158 1.883 1.883 0 0 0-1.172-.5H11.005a1.281 1.281 0 0 0-1.05.519c-.252.327-.39.727-.39 1.14v11.095l5.122-3.745a3.348 3.348 0 0 1 2.19-.64 3.348 3.348 0 0 1 2.131.806l4.284 3.784c.309.27.698.429 1.107.455.41.034.819-.06 1.172-.27l8.477-4.935-.013-6.55Zm0 15.911v-7.53l-7.684 4.406a3.378 3.378 0 0 1-.89.39 2.56 2.56 0 0 1-.954.109c-.422.004-.84-.07-1.236-.218a3.841 3.841 0 0 1-1.075-.64l-4.22-3.72a1.856 1.856 0 0 0-1.19-.5c-.438-.024-.87.11-1.217.379l-6.006 4.45v3.002a1.28 1.28 0 0 0 .423.967 1.28 1.28 0 0 0 1.018.378h21.327c.434 0 .855-.149 1.19-.423a1.28 1.28 0 0 0 .526-1.05h-.013Zm4.417-19.349a1.474 1.474 0 0 0-.359-1.126 1.548 1.548 0 0 0-1.05-.564l-21.192-2.44a1.79 1.79 0 0 0-.64.052c-.197.053-.381.142-.545.263-.149.129-.274.283-.371.454a1.883 1.883 0 0 0-.224.544l-.307 3.035h18.567a3.2 3.2 0 0 1 2.28.967 3.322 3.322 0 0 1 1.005 2.254V32.86c0-.045.057-.083.185-.128a.73.73 0 0 0 .314-.186c.161-.122.289-.283.371-.467a1.41 1.41 0 0 0 .128-.564l1.838-15.789v-.032Zm-11.928 5.193a3.137 3.137 0 0 1 .954 2.299 3.2 3.2 0 0 1-.954 2.33 3.136 3.136 0 0 1-2.299.954 3.248 3.248 0 0 1-3.278-3.284 3.13 3.13 0 0 1 .948-2.299 3.203 3.203 0 0 1 2.33-.954 3.136 3.136 0 0 1 2.299.954Zm-1.108 3.496a1.652 1.652 0 0 0 .5-1.217 1.703 1.703 0 0 0-1.69-1.69 1.653 1.653 0 0 0-1.217.5 1.627 1.627 0 0 0-.5 1.19 1.704 1.704 0 0 0 1.716 1.716 1.626 1.626 0 0 0 1.191-.5Z"/></svg>