<svg xmlns="http://www.w3.org/2000/svg" width="100" height="100" fill="none"><path fill="#F3F3F1" d="M27.084 39.583v36.111c0 3.056 2.5 5.556 5.555 5.556h34.722c3.056 0 5.556-2.5 5.556-5.556V39.583H27.083Z"/><path fill="#6180E4" d="M78.472 39.583H21.528v-6.944a5.554 5.554 0 0 1 5.555-5.556h45.834a5.554 5.554 0 0 1 5.555 5.556v6.944Z"/><path fill="#D5DBE1" d="M33.334 75.694V39.583h-6.25v36.111c0 3.056 2.5 5.556 5.555 5.556h6.25c-3.056 0-5.556-2.5-5.556-5.556Z"/><path fill="#395BCA" d="M33.333 27.083h-6.25a5.554 5.554 0 0 0-5.555 5.556v6.944h6.25v-6.944a5.554 5.554 0 0 1 5.555-5.556Z"/><path fill="#A4AFC1" d="m11.212 13.275 1.965-1.964 3.928 3.928-1.964 1.964-3.929-3.928ZM10.721 26.527 14.65 22.6l1.964 1.964-3.929 3.928-1.964-1.964ZM22.014 15.237l3.928-3.929 1.964 1.965-3.928 3.928-1.964-1.964ZM77.083 17.07a4.172 4.172 0 0 1-4.166-4.168 4.172 4.172 0 0 1 4.166-4.166 4.172 4.172 0 0 1 4.167 4.166 4.172 4.172 0 0 1-4.167 4.167Zm0-5.556a1.39 1.39 0 1 0 .001 2.778 1.39 1.39 0 0 0 0-2.778Z"/><path fill="#353535" d="M67.361 83.333H32.64A7.645 7.645 0 0 1 25 75.694V39.583h4.167v36.111a3.477 3.477 0 0 0 3.472 3.472H67.36a3.477 3.477 0 0 0 3.472-3.472V39.583H75v36.111a7.645 7.645 0 0 1-7.639 7.639Z"/><path fill="#353535" d="M78.472 41.667H65.278V37.5h11.11v-4.861a3.477 3.477 0 0 0-3.471-3.472H27.083a3.477 3.477 0 0 0-3.472 3.472V37.5h37.5v4.167H21.528a2.084 2.084 0 0 1-2.084-2.084V32.64A7.645 7.645 0 0 1 27.084 25h45.833a7.645 7.645 0 0 1 7.638 7.639v6.944c0 1.15-.933 2.084-2.083 2.084Z"/><path fill="#353535" d="M63.89 27.083h-4.168v-5.555a.695.695 0 0 0-.694-.695H40.972a.695.695 0 0 0-.694.695v5.555h-4.167v-5.555c0-2.68 2.18-4.861 4.861-4.861h18.056c2.68 0 4.861 2.18 4.861 4.86v5.556ZM47.917 52.083h4.167v18.055h-4.167V52.083ZM36.111 52.083h4.167v18.055h-4.167V52.083ZM59.722 52.083h4.167v18.055h-4.167V52.083ZM5.556 79.166h88.889v4.167H5.555v-4.166Z"/></svg>