<svg xmlns="http://www.w3.org/2000/svg" width="80" height="80" fill="none"><path fill="#3E64DE" d="M63.432 30.486c-.167-12.197-10.14-22.069-22.377-22.069a22.313 22.313 0 0 0-14.765 5.576 22.4 22.4 0 0 0-7.116 12.204l-.215-.002C8.505 26.195 0 34.701 0 45.155s8.505 18.959 18.96 18.959H32.2a1.706 1.706 0 0 0 0-3.412H18.96c-8.574 0-15.548-6.975-15.548-15.547 0-8.573 6.974-15.547 15.547-15.547.457 0 .94.024 1.477.075a1.707 1.707 0 0 0 1.85-1.468 18.976 18.976 0 0 1 6.26-11.663 18.902 18.902 0 0 1 12.51-4.723c10.458 0 18.966 8.51 18.966 18.968 0 .376-.028.764-.057 1.175l-.013.175a1.706 1.706 0 0 0 1.872 1.818c.454-.046.912-.07 1.361-.07 7.39 0 13.403 6.013 13.403 13.404 0 7.39-6.013 13.402-13.403 13.402H49.261a1.706 1.706 0 0 0 0 3.413h13.924C72.457 64.114 80 56.57 80 47.299c0-9.189-7.41-16.68-16.568-16.813Z"/><path fill="#3E64DE" d="M41.055 16.436c-7.134 0-13.24 5.332-14.205 12.402a1.706 1.706 0 0 0 3.38.461c.735-5.387 5.39-9.45 10.825-9.45a1.706 1.706 0 1 0 0-3.413ZM48.814 50.008l-6.206-5.544a2.815 2.815 0 0 0-3.754 0l-6.206 5.544a1.706 1.706 0 0 0 2.273 2.545l4.104-3.666v20.99a1.706 1.706 0 1 0 3.412 0v-20.99l4.104 3.666c.325.29.731.434 1.136.434a1.707 1.707 0 0 0 1.137-2.978Z"/></svg>