<?xml version="1.0" encoding="UTF-8"?>
<svg xmlns="http://www.w3.org/2000/svg" xmlns:xlink="http://www.w3.org/1999/xlink" width="760px" height="480px" viewBox="0 0 760 480" version="1.1">
<g id="surface1">
<rect x="0" y="0" width="760" height="480" style="fill:rgb(100%,100%,100%);fill-opacity:1;stroke:none;"/>
<path style=" stroke:none;fill-rule:nonzero;fill:rgb(100%,100%,100%);fill-opacity:1;" d="M 0 6.53125 C 0 2.925781 2.910156 0 6.496094 0 L 753.503906 0 C 757.09375 0 760 2.925781 760 6.53125 L 760 473.46875 C 760 477.078125 757.09375 480 753.503906 480 L 6.496094 480 C 2.910156 480 0 477.078125 0 473.46875 Z M 0 6.53125 "/>
<rect x="0" y="0" width="760" height="480" style="fill:rgb(92.941176%,94.117647%,96.078431%);fill-opacity:1;stroke:none;"/>
<path style=" stroke:none;fill-rule:nonzero;fill:rgb(79.607843%,80.784314%,83.921569%);fill-opacity:1;" d="M 319.527344 221.941406 L 376.296875 254.917969 C 377.558594 255.550781 378.191406 255.550781 379.449219 255.550781 C 380.710938 255.550781 381.34375 255.550781 382.605469 254.917969 L 439.375 221.941406 C 440.636719 221.304688 441.265625 220.671875 441.898438 219.402344 C 443.15625 216.234375 442.527344 212.429688 439.375 210.527344 L 382.605469 177.550781 C 380.710938 176.28125 378.191406 176.28125 376.296875 177.550781 L 319.527344 210.527344 C 318.265625 211.160156 317.636719 211.792969 317.003906 213.0625 C 315.742188 216.234375 316.375 220.039062 319.527344 221.941406 Z M 439.375 235.890625 L 438.113281 235.257812 L 382.605469 267.597656 C 380.710938 268.867188 378.191406 268.867188 376.296875 267.597656 L 320.789062 235.257812 L 319.527344 235.890625 C 316.375 237.792969 315.742188 241.597656 317.003906 244.769531 C 317.636719 246.039062 318.265625 246.671875 319.527344 247.308594 L 376.296875 280.28125 C 378.191406 281.550781 380.710938 281.550781 382.605469 280.28125 L 439.375 247.308594 C 442.527344 245.402344 443.15625 241.597656 441.898438 238.429688 C 441.265625 237.160156 440.636719 236.527344 439.375 235.890625 Z M 439.375 261.257812 L 438.113281 260.625 L 382.605469 292.964844 C 380.710938 294.234375 378.191406 294.234375 376.296875 292.964844 L 320.789062 260.625 L 319.527344 261.257812 C 316.375 263.160156 315.742188 266.964844 317.003906 270.136719 C 317.636719 271.40625 318.265625 272.039062 319.527344 272.671875 L 376.296875 305.648438 C 378.191406 306.917969 380.710938 306.917969 382.605469 305.648438 L 439.375 272.671875 C 442.527344 270.769531 443.15625 266.964844 441.898438 263.792969 C 441.265625 262.527344 440.636719 261.890625 439.375 261.257812 Z M 439.375 261.257812 "/>
</g>
</svg>
